<svg id="Layer_1" data-name="Layer 1" xmlns="http://www.w3.org/2000/svg" viewBox="0 0 966.64 336.47"><defs><style>.word-stroke{stroke:#fff;stroke-miterlimit:10;}</style></defs><path class="word-stroke" d="M144.37,355l-3.8,66.63H63.47L97.26,104.69h120.4l33.32,317h-78L169.12,355Zm21.42-62.82c-1.43-24.27-7.14-107.07-8.57-124.21h-3.33c-.48,13.8-5.23,93.28-6.66,124.21Z" transform="translate(-57.91 -94.93)"/><path class="word-stroke" d="M272.86,104.69h88c49,0,82.81,19,82.81,70.91v15.7c0,39-15.71,53.78-33.79,59.49,17.13,6.66,38.07,20,38.07,59v27.13c0,59.49-22.84,84.71-85.19,84.71H272.86Zm82.8,119.45c8.57,0,13.8-4.76,13.8-18.56V180.83c0-10.47-1.9-20-15.7-20h-7.14v63.3Zm-9,141.82h6.66c12.85,0,15.23-7.61,15.23-21.89V299.81c0-14.75-4.28-20.94-17.61-20.94h-4.28Z" transform="translate(-57.91 -94.93)"/><path class="word-stroke" d="M647.39,187.49V338.83c0,64.25-35.22,87.57-90.42,87.57-53.3,0-84.71-25.22-84.71-87.57V183.69c0-58.54,36.16-83.76,86.61-83.76S647.39,125.63,647.39,187.49Zm-99.47-9V347.88c0,11.89,3.34,19,11.43,19,7.13,0,11.42-6.19,11.42-19V178c0-14.28-3.33-18.56-11.9-18.56C551.73,159.42,547.92,164.18,547.92,178.45Z" transform="translate(-57.91 -94.93)"/><path class="word-stroke" d="M751.61,104.69V349.3c0,11.42,2.86,17.61,10,17.61,8.57,0,10.95-5.71,10.95-17.61V104.69h77.57V339.78c0,67.11-31.41,85.67-89.47,85.67-60.44,0-85.66-24.75-85.66-87.09V104.69Z" transform="translate(-57.91 -94.93)"/><path class="word-stroke" d="M906.76,167h-37.6V104.69h150.39V167H982V421.64H906.76Z" transform="translate(-57.91 -94.93)"/></svg>