<svg id="Layer_1" data-name="Layer 1" xmlns="http://www.w3.org/2000/svg" viewBox="0 0 745.41 329.47"><defs><style>.word-stroke{stroke:#fff;stroke-miterlimit:10;}</style></defs><path class="word-stroke" d="M25,44.57h88c49,0,82.81,19,82.81,70.91v15.71c0,39-15.7,53.77-33.79,59.48,17.13,6.67,38.07,20,38.07,59v27.12c0,59.49-22.84,84.71-85.18,84.71H25ZM107.85,164c8.57,0,13.8-4.76,13.8-18.56V120.72c0-10.47-1.9-20-15.7-20H98.81V164Zm-9,141.82h6.66c12.85,0,15.23-7.61,15.23-21.89V239.69c0-14.75-4.28-20.94-17.61-20.94H98.81Z" transform="translate(-23.54 -38.31)"/><path class="word-stroke" d="M226.34,44.57H302V297.28h70.91l-7.61,64.24h-139Z" transform="translate(-23.54 -38.31)"/><path class="word-stroke" d="M565.67,127.38V278.72c0,64.24-35.22,87.56-90.43,87.56-53.3,0-84.71-25.22-84.71-87.56V123.57c0-58.54,36.17-83.76,86.62-83.76S565.67,65.51,565.67,127.38Zm-99.47-9V287.76c0,11.9,3.33,19,11.42,19,7.14,0,11.42-6.18,11.42-19V117.86c0-14.28-3.33-18.56-11.89-18.56C470,99.3,466.2,104.06,466.2,118.34Z" transform="translate(-23.54 -38.31)"/><path class="word-stroke" d="M767.45,361.52H713.2c-1.43-5.23-2.38-18.08-2.86-24.74-11.9,25.7-35.69,29.5-53.78,29.5-52.82,0-64.25-41.4-64.25-88V123.57c0-42.83,20.47-83.76,86.62-83.76,79,0,88.52,55.68,88.52,87.09v20.47H690.83V123.09c0-15.7-1-23.79-11.42-23.79-9,0-11.43,7.14-11.43,24.75V287.76c0,17.61,6.67,19,11.43,19,7.13,0,11.89-4.75,11.89-22.84V237.79H678.93V175.44h88.52Z" transform="translate(-23.54 -38.31)"/></svg>