<svg id="Layer_1" data-name="Layer 1" xmlns="http://www.w3.org/2000/svg" viewBox="0 0 1290.78 329.47"><defs><style>.word-stroke{stroke:#fff;stroke-miterlimit:10;}</style></defs><path class="word-stroke" d="M236.31,245.09v25.22c0,49-10.47,97.09-88.52,97.09-42.35,0-84.23-14.75-84.23-90.42V129c0-67.58,37.12-88,86.14-88,77.57,0,86.61,51.87,86.61,87.56V158H159.69V120.4c0-12.85-.95-20.46-10-20.46-8.57,0-10.47,6.19-10.47,20.46V286.5c0,15.7,1.9,21.41,9.52,21.41,8.56,0,10.94-5.71,10.94-22.84v-40Z" transform="translate(-62.06 -39.43)"/><path class="word-stroke" d="M436.66,128.49V279.83c0,64.25-35.21,87.57-90.42,87.57-53.3,0-84.71-25.22-84.71-87.57V124.69c0-58.54,36.17-83.76,86.61-83.76S436.66,66.63,436.66,128.49Zm-99.46-9V288.88c0,11.89,3.33,19,11.42,19,7.14,0,11.42-6.19,11.42-19V119c0-14.28-3.33-18.56-11.9-18.56C341,100.42,337.2,105.18,337.2,119.45Z" transform="translate(-62.06 -39.43)"/><path class="word-stroke" d="M465.21,362.64V45.69h79c7.61,34.74,31.41,159.43,33.31,172.75h3.33c-5.23-50-11.42-131.83-11.42-161.33V45.69h70.91v317H555.16c-3.81-27.13-26.17-173.23-27.6-183.7h-3.81c2.38,35.22,8.57,139.44,8.57,176.09v7.61Z" transform="translate(-62.06 -39.43)"/><path class="word-stroke" d="M697.46,108h-37.6V45.69H810.24V108H772.65V362.64H697.46Z" transform="translate(-62.06 -39.43)"/><path class="word-stroke" d="M886.87,296l-3.81,66.63H806L839.75,45.69H960.16l33.31,317H915.42L911.62,296Zm21.41-62.82c-1.42-24.27-7.13-107.07-8.56-124.21h-3.33c-.48,13.8-5.24,93.28-6.67,124.21Z" transform="translate(-62.06 -39.43)"/><path class="word-stroke" d="M1184.78,245.09v25.22c0,49-10.47,97.09-88.52,97.09-42.36,0-84.24-14.75-84.24-90.42V129c0-67.58,37.13-88,86.14-88,77.58,0,86.62,51.87,86.62,87.56V158h-76.62V120.4c0-12.85-1-20.46-10-20.46-8.56,0-10.47,6.19-10.47,20.46V286.5c0,15.7,1.91,21.41,9.52,21.41,8.57,0,11-5.71,11-22.84v-40Z" transform="translate(-62.06 -39.43)"/><path class="word-stroke" d="M1238.55,108H1201V45.69h150.39V108h-37.6V362.64h-75.19Z" transform="translate(-62.06 -39.43)"/></svg>