<svg id="Komainu" xmlns="http://www.w3.org/2000/svg" viewBox="0 0 801.32 804.62"><defs><style>.cls-1,.cls-2{fill:none;stroke:#ce2525;stroke-linecap:round;stroke-miterlimit:10;}.cls-1{stroke-width:3px;}.cls-2{stroke-width:2px;}</style></defs><path class="cls-1" d="M1521.5,278.93s-1.07,15.39-14.65,18.42-36.3-10.83-19-36.92,49.18-14,61.43,10.49-12.25,74-60.77,62.65-65.48-74.9-25.91-104.1,89-27.32,109.29,9.42-18,50.41-20.51,57.53" transform="translate(-1087.06 -73.65)"/><path class="cls-1" d="M1576.06,268.75s57.55,7.35,67.68,40.8-12.25,71.13-55.35,67.36-56.06-38.63-56.06-38.63" transform="translate(-1087.06 -73.65)"/><path class="cls-1" d="M1540.4,351.76s-27.38,30.8-65.3,13.85-9.46-42.65-9.46-42.65" transform="translate(-1087.06 -73.65)"/><path class="cls-1" d="M1545.18,310.66s-1.71,36.41,20.48,46.3,53.52-3.76,56.31-35.38c2.33-26.38-43.27-30.41-45.59-4-1.36,15.4,19.81,21.47,23.9,6.56,3.06-8.49-8-12.47-11-4" transform="translate(-1087.06 -73.65)"/><path class="cls-1" d="M1606.86,276.91s18-2.69,18-31-42.16-13.19-31.8,2.12,20-1,12.48-4.48" transform="translate(-1087.06 -73.65)"/><path class="cls-1" d="M1634.55,294.24c1-.95,28.74-2.12,28.74-40.75s-20.49-53-40.75-59.82-55.89,8.11-62,30.67" transform="translate(-1087.06 -73.65)"/><path class="cls-1" d="M1589.24,196.67s-2.5-34.56-41.36-34.56-45.05,32.68-44.78,48.84" transform="translate(-1087.06 -73.65)"/><path class="cls-1" d="M1505.16,193.82s-6.27-21.82-46.32-10.52-42.39,39.89-41,55.28S1441,266.22,1441,266.22" transform="translate(-1087.06 -73.65)"/><path class="cls-1" d="M1437.54,192.56s-28.63-22.45-56.89,23.72,40.2,60.31,50.6,45.58" transform="translate(-1087.06 -73.65)"/><path class="cls-1" d="M1657.76,278.14s15.89,24.34,41.33,3.62,8.24-51.76-6.13-58.62-28.76-3.17-34,3.23" transform="translate(-1087.06 -73.65)"/><path class="cls-1" d="M1674.55,219.56s10.88-30.6-19.74-41.44S1610.29,192,1610.29,192" transform="translate(-1087.06 -73.65)"/><path class="cls-1" d="M1440.66,275.32s-19-11-36,8.95,1.57,48.83,15.08,55.58,36,0,36,0" transform="translate(-1087.06 -73.65)"/><path class="cls-1" d="M1711.1,247.89s35.72,31.35,73.72,9.06,34.23-59.89,9.74-76.9-51.51-16.37-61.24-27.37-12.56-37.37-39.57-40.82-72,10.68-102.29-2.2-7.63-21.35-35-29.83-35.8-2.83-35.8-2.83,18.84-1.57,31.09,35.17,28.27,49.94,71.92,49.94,39.57,20.12,39.57,20.12" transform="translate(-1087.06 -73.65)"/><path class="cls-1" d="M1489.26,181.15s-3.72-18.73-32-24.07-55.9,15.7-75,15.7-24.18-24.18-49-24.18-56.85,11.62-56.85,11.62,19.79-2.82,33,13.51,3.45,41,33.29,49.41,33.84,1.3,33.84,1.3" transform="translate(-1087.06 -73.65)"/><path class="cls-1" d="M1408,267.45s-22.76.17-34.11,15.25-7.58,19.08-7.58,19.08-16.72-.95-22.85,11.77-1.65,20.5-1.65,20.5-14.13,4-17.66,18.84,9.19,24.28,9.19,24.28" transform="translate(-1087.06 -73.65)"/><path class="cls-1" d="M1324.57,351.24s-12.23,4-18.59-8.38-1.65-22-1.65-22,7.26-1.89,9.28-10.84a18.31,18.31,0,0,0-3.62-15.31s6.83-5.42,5.65-17.19-10.13-11.3-10.13-11.3.24-2.36-5.89-10.14-13.89-2.35-13.89-2.35-4.48-8-8.25-9.42-9.18,3.06-9.18,3.06a28.79,28.79,0,0,0-17.9-7.3c-11.07-.47-21,8.48-21,8.48a27.88,27.88,0,0,0-23.56,11.07c-9.42,12.48-6.36,24.48-6.36,24.48s-8.48,0-9.89,7.55,4.71,15.93,4.71,15.93-7.54,6-6.83,13,4.48,9.66,4.48,9.66-5.28,5.88-4.53,9.18,3.58,7.37,3.58,7.37-13.89-1.67-16.25,5a32.46,32.46,0,0,0-1.41,13.52s-11.31-8.95-20.26-2.35a27.6,27.6,0,0,0-10.6,15.78s-9.18-4.95-12.24,0a12.91,12.91,0,0,0-1.89,9.42s-5.65-10.6-6.59-19.08,1.41-13.19,1.41-13.19-15.07,15.54-14.6,33.45,1.88,17.42,1.88,17.42-8.71-.94-12.72-10.59-1.65-16.26-1.65-16.26-10.36,18.61-6.83,37.92,23.09,18.61,23.09,18.61" transform="translate(-1087.06 -73.65)"/><path class="cls-1" d="M1231.16,326.67l11.62-5.81s-17.9-16.18,1.26-31.25,32.34,4.39,29.52,15.7,14.76,23.24,14.76,23.24,10.83-.16,16-7.69" transform="translate(-1087.06 -73.65)"/><path class="cls-1" d="M1231.16,270.92s-5,12.88-12.09,1.38,32.18-16.48,17.43,11.8" transform="translate(-1087.06 -73.65)"/><path class="cls-1" d="M1100.68,433.75s-4.24,15.39,3,20.73,14.13,4.4,14.13,4.4.32,11.62,9.42,11.93a17.42,17.42,0,0,0,13.82-5.6s12.56,2.46,15.39-1.31,7.62-12,8.17-11.61,4.39,8.79,15.38,7.22,19.16-11,19.16-11,12.25,2.83,24.5-7.22,7.53-20.1,7.53-20.1a18.87,18.87,0,0,0,16.33-5.65c7.54-7.54,8.32-19.79,8.32-19.79s8.25,9.19,12,18.61,15.07,24,15.07,24-10.36,0-9.42,6.83,4.71,5.89,4.71,5.89-6.12,5.18-12,5.18-10.13-10.6-10.13-10.6-1.41,19.78,8.24,28a31.21,31.21,0,0,0,20.5,7.53s-2.36,9.42-8.72,10.37-15.31-2.12-15.31-2.12,3.77,17.9,15.55,19.31,34.15-8.24,34.15-8.24a25.54,25.54,0,0,1-8,6.36,121.47,121.47,0,0,1-13.19,4.71s11.54,13,32,9.89,23.56-18.14,23.56-18.14,12.72,6.83,23.08,4.24,15.78-12.95,15.78-12.95,3.06,24.26,43.57,13.9S1479.57,452,1479.57,452s16-4.71,25.13,3.14,7.22,10.1,7.22,10.1" transform="translate(-1087.06 -73.65)"/><path class="cls-1" d="M1292.1,251.9s-8.18-35.62-32.36-33.27-29.6-6.83-43.26-5.18-23.08,21.67-40.51,17.43-26.15-13.42-36.27-15.54-34.39-.71-34.39-.71,29.44,7.3,44.51,26.85,20.5,22.65,33.45,21.69,16.85-4,21.26-1.64" transform="translate(-1087.06 -73.65)"/><path class="cls-1" d="M1642.68,292.1s33.56-4.69,44.16,19.8,2.36,34.93,2.36,34.93,21.67,1.82,27.32,22.31-8.25,42.63-8.25,42.63,9.19,7.54,10.6,15.08-5.18,16.72-5.18,16.72" transform="translate(-1087.06 -73.65)"/><path class="cls-1" d="M1642.68,473s13.07-22,45.42-20.12,36.74,31.09,37.05,38.31" transform="translate(-1087.06 -73.65)"/><path class="cls-1" d="M1670.19,454.47s24.82-29.82,55-4.7,27.33,70.35,27.33,70.35" transform="translate(-1087.06 -73.65)"/><path class="cls-1" d="M1768.05,520.12s3.74-6.6,3.9-19.79-13.1-15.07-11.42-22.14S1772,464.53,1772,443.57s-29.35-34.15-32-37,7.69-30.15-10.92-51.35-36.76-20.06-36.76-20.06" transform="translate(-1087.06 -73.65)"/><path class="cls-1" d="M1636.91,405.65s21.45-14.13,30-16.49,25.29-3.3,25.29-3.3l-4.93-15.16S1650.1,374.09,1636.91,405.65Z" transform="translate(-1087.06 -73.65)"/><path class="cls-1" d="M1282.9,438.39s32.27,47.1,61.95,65" transform="translate(-1087.06 -73.65)"/><path class="cls-1" d="M1152.42,386.8s-6.36-4-9.9-8" transform="translate(-1087.06 -73.65)"/><path class="cls-1" d="M1129.33,415.78s-14.13-1.42-18.84-9" transform="translate(-1087.06 -73.65)"/><path class="cls-1" d="M1479.57,452s-4.81-32.35,18.32-32.66" transform="translate(-1087.06 -73.65)"/><path class="cls-1" d="M1503.75,438.46s3.14-10.52,26.85-9.1" transform="translate(-1087.06 -73.65)"/><path class="cls-1" d="M1628.74,478.73s-20.2-47.7-70.55-13.52" transform="translate(-1087.06 -73.65)"/><path class="cls-1" d="M1585.38,453.41c33.58-36.25,65.29,10.86,65.29,10.86" transform="translate(-1087.06 -73.65)"/><path class="cls-1" d="M1667.5,455.22s-13.67-28.47-43-13" transform="translate(-1087.06 -73.65)"/><path class="cls-1" d="M1692.18,662.69s-12.25,8.17-15.07-9.73,50.56-7.85,36.42,21-46.47,2.82-46.47,2.82" transform="translate(-1087.06 -73.65)"/><path class="cls-1" d="M1659.21,675.88s-15.08-38.31,16.64-49.62,63.44,6.27,64.06,39.56-27,52.77-58.72,47.12-56.53-21.36-54.65-53.39,40.52-44.28,40.52-44.28" transform="translate(-1087.06 -73.65)"/><path class="cls-1" d="M1702.51,623.37s-12.84-16.89-1.85-35.11,53.39-29.52,71.29,0" transform="translate(-1087.06 -73.65)"/><path class="cls-1" d="M1780.43,592.66s17.9,42.08-21.36,59.36" transform="translate(-1087.06 -73.65)"/><path class="cls-1" d="M1791.15,674.89" transform="translate(-1087.06 -73.65)"/><path class="cls-1" d="M1781.16,594.63s21.88-2.28,25.33-17.36,1.57-34.54-17.9-39.57" transform="translate(-1087.06 -73.65)"/><path class="cls-1" d="M1729,555s-6-31.41,23.48-34.86,40.82,11,35.8,31.71-25.49,26.07-25.49,26.07" transform="translate(-1087.06 -73.65)"/><path class="cls-1" d="M1782.86,526.48s-11.23-20.18,16.72-35.26,42.4-3.45,58.73-11a106.68,106.68,0,0,0,27-17.9s-6.6,22.3-28,35.8-32.66,13.19-32.66,35.49,27.32,57.78,19.47,102.06-53,39.21-53,39.21" transform="translate(-1087.06 -73.65)"/><path class="cls-1" d="M1713.1,576.9s16-58-6.95-79.87-49-37.68-84.32-14.13" transform="translate(-1087.06 -73.65)"/><path class="cls-1" d="M1561.85,473.64s-4.08-19.47-24.18-19.47-34,18.21-39.78,37.05" transform="translate(-1087.06 -73.65)"/><path class="cls-1" d="M1484,518.23s-2.32-14.06,6.28-22,30.78,0,30.78,0,1.36-11.64,8.84-16.34,20.36,3.46,20.36,3.46,12.56-15.49,32-4.92,16,22.51,16,22.51,8.71-8.62,19.75-4.46S1628.74,512,1628.74,512" transform="translate(-1087.06 -73.65)"/><path class="cls-1" d="M1657.32,566.16l-8.16-14.33s28.57-25.43-3.17-38-25.73,29.2-25.73,29.2" transform="translate(-1087.06 -73.65)"/><path class="cls-1" d="M1464.26,576.9s-18.84-4.5-29,7.05-8.71,23.08-8.71,23.08-9.42-3.06-13.9,9.42,2.36,21,2.36,21,10.12-13.89,29.91-6.59,24.28,23.55,37,24.73,22.61-22.38,30.14-24.73,12,9.42,15.54,9.18,25.67-20.72,41.22-18.13,18.37,9.42,13.42,14.6-16.77-15.2-36.65-7.72" transform="translate(-1087.06 -73.65)"/><path class="cls-1" d="M1487.58,630.58s28.73-.47,13-36" transform="translate(-1087.06 -73.65)"/><path class="cls-1" d="M1559.89,677.05s6,6.06,4.16,8.57-13.5,13.24-1.26,28.29,31.41,2.8,31.41,2.8-8.48,18.21,18.84,28.89,38.31-3.77,38.31-3.77,5,22.93,24.5,19.79,28.26-22.93,28.26-22.93,15.47,4.4,24.38-5,1.74-36.89.51-35.66c0,0,23.48,16.79,46.72,0s15.07-42.85,14.44-46" transform="translate(-1087.06 -73.65)"/><path class="cls-1" d="M1788.18,683.53a44.35,44.35,0,0,1,10.15,6.48c4.08,3.77,4.08,11.94,4.08,11.94s21,5.65,17.59,21.35-47.74-13.81-64.07-11,5,11.62-6.59,19.47-32.17,19.85-39.57,19.16-30.72,10-30.72,10" transform="translate(-1087.06 -73.65)"/><path class="cls-1" d="M1666.27,760.92s-3.92,11.69,3,13.57,11.62-4.39,20.42,5.34,1.82,9.42,1.82,9.42,5.24,4.79,5.71,10a8.07,8.07,0,0,1-3.29,7.54s13.42,4,6.59,16.49-12,14.84-12,14.84,1.45,16.95-4.69,26.14-18.64,12.25-18.64,12.25l-8.7-29a47.84,47.84,0,0,1-8.25,14.84c-5.65,6.59-18.84,5.18-18.84,5.18s2.12-14.6,0-18.14-2.93-10.36-2.93-10.36-11.44,12.25-24.63,9.66-10.36-20.5-10.36-20.5-16.25-.85-25-9.49-.94-28.19-16-38.08" transform="translate(-1087.06 -73.65)"/><path class="cls-1" d="M1585.56,778.26a27.77,27.77,0,0,1,11.07-1.18c5.65.71,25.67,25.91,48.76,27.56s31.48-16.49,23.86-30.15" transform="translate(-1087.06 -73.65)"/><path class="cls-1" d="M1560.8,799.7s-12.92,7.06-28.23-13.2-23.09-16.25-23.09-16.25" transform="translate(-1087.06 -73.65)"/><path class="cls-1" d="M1415,637.41S1408,642,1408,647.3a11.32,11.32,0,0,0,3.53,8.29s-3.12,6.82-.34,9a5.67,5.67,0,0,0,5.29,1.23,6,6,0,0,0,3.45,6c4.09,2.2,8.19-1.57,8.17,0s-1.26,4.71,5,5a21.2,21.2,0,0,0,11-2.51s-.62,5.18,2.36,7.07,4.87,1.41,4.87,1.41l-7.3,3.14s-7.78.24-11.07,2.59-3.3,7.07-3.3,7.07-5.18-1.65-7.77,2.12l-2.59,3.77s-5.66-2.12-6.36,0-9.66.94-13.12,6.43a24.56,24.56,0,0,0-3.61,11.15s-16.8,9.58-17.43,35,20.73,32.66,44.91,26.07,10.11-33,7.54-38.32S1424,714.2,1451.31,718" transform="translate(-1087.06 -73.65)"/><path class="cls-1" d="M1415,700.54s-7.77,2.82-17.42-7.78-18.61-25.67-32.74-27.32-18.2,8.72-33.68,8.72-24-7.78-24-7.78,0,10.13,21.91,13.19,35.56,5.42,35.56,23.32-8.71,20-8.71,38.39,10.61,30.45,26.26,28.65" transform="translate(-1087.06 -73.65)"/><path class="cls-1" d="M1503.12,717.69s10.05-5.69,13.82-5.69,7.59,15.07,23.11,15.07S1557.26,707,1557.26,707" transform="translate(-1087.06 -73.65)"/><path class="cls-1" d="M1532.49,725.69s19.51,6.16,35.11-7.38" transform="translate(-1087.06 -73.65)"/><path class="cls-1" d="M1550.47,744.66s-34.73,2.82-10.42-4.71,23-3.14,27.55-8.8,3-11.23,3-11.23" transform="translate(-1087.06 -73.65)"/><path class="cls-1" d="M1415,782.45s.48,8.69,7.39,8.69,16.33-4.35,16.33-4.35-1.26,7.8,3.45,7.8,20.1,2.3,27-5,8.48-7.17,8.48-7.17-.32,6.31,2.82,6.24,12.25-6.24,12.25-6.24-2.51,8.16,7.07,7.17,28.23-8.64,28.23-8.64" transform="translate(-1087.06 -73.65)"/><path class="cls-1" d="M1571.39,207.73c.06-.07-4-16.44-18.57-14.9s-15.54,12.28-1.18,11.27" transform="translate(-1087.06 -73.65)"/><path class="cls-2" d="M1680.88,193.82s16.85-16.86,6-37.49c-10.27-19.46-74.9,7.12-106.66-15.56-28.28-20.19-36.1-53.7-45-57.17" transform="translate(-1087.06 -73.65)"/><path class="cls-2" d="M1672.71,186.53s9.73-18.46-7.85-26.94-42.89,5.34-75.62-8.16-33.91-29.62-33.91-29.62" transform="translate(-1087.06 -73.65)"/><path class="cls-2" d="M1690,203.25s21.67-11.62,18.84-31.72-17.94-32.34-62.67-32.82-57.29,7.19-75.19-16.9-22.61-30.36-22.61-30.36" transform="translate(-1087.06 -73.65)"/><path class="cls-2" d="M1692.24,216.28s37-14.6,32.76-44.28-39.39-42.4-81.64-38.63-62.51-4.24-76.17-24.49-17.9-26.48-34.86-27.61" transform="translate(-1087.06 -73.65)"/><path class="cls-2" d="M1711.37,213.92s34.83-14.91,24.46-38.54" transform="translate(-1087.06 -73.65)"/><path class="cls-2" d="M1699.56,221.46s10.09,8.44,37.21-10.51-17.7-68.63-17.7-68.63" transform="translate(-1087.06 -73.65)"/><path class="cls-2" d="M1736.3,221.7s20.49-3.22,21-18.45" transform="translate(-1087.06 -73.65)"/><path class="cls-2" d="M1746.78,170.05s23.6,20.58,23.6,38.17-21.36,25.25-47,25.25" transform="translate(-1087.06 -73.65)"/><path class="cls-2" d="M1727.59,240.77s36.74,3.77,47.58-15.78-1.42-42-15.08-49.61" transform="translate(-1087.06 -73.65)"/><path class="cls-2" d="M1723.35,256.07" transform="translate(-1087.06 -73.65)"/><path class="cls-2" d="M1771.16,175.38c54.41,20.26,37,97.9-47.81,80.69" transform="translate(-1087.06 -73.65)"/><path class="cls-2" d="M1565.69,83.6s-11.06,22,32,35.17,69.41-11,96.1-6.91" transform="translate(-1087.06 -73.65)"/><path class="cls-2" d="M1661.72,122.75s27.38-10.58,49.65,7,14.1,21.36,26.39,26.57" transform="translate(-1087.06 -73.65)"/><path class="cls-2" d="M1411.84,164.57s57.37-13.2,67,15.48" transform="translate(-1087.06 -73.65)"/><path class="cls-2" d="M1282.9,249.39s2.28-12.23-6.52-20.08-28.9-10.46-28.9-10.46" transform="translate(-1087.06 -73.65)"/><path class="cls-2" d="M1151.25,243.31s17.73,14.58,29.35,13.95,20.21-2.16,26,0" transform="translate(-1087.06 -73.65)"/><path class="cls-2" d="M1271.88,245.11s3.88-12.11-10.26-17.88-29.2-6.27-30.46-11.83" transform="translate(-1087.06 -73.65)"/><path class="cls-2" d="M1209.12,256s-5.59-6.61-17.53-6.61-37.54-3.1-41.77-7.91" transform="translate(-1087.06 -73.65)"/><path class="cls-2" d="M1229.44,248.55s-9.39-15.65-20.32-16-25.24,3.39-35.52-2.26" transform="translate(-1087.06 -73.65)"/><path class="cls-2" d="M1234.12,245.11s-15.95-19.91-25-19.89a100.88,100.88,0,0,0-18.47,2.06" transform="translate(-1087.06 -73.65)"/><path class="cls-2" d="M1241.62,241.48c-.75.26-1.35-11.85-10.46-12.8s-26.3-9.83-26.3-9.83c3.21-5.12,15.31,4.18,26.3,4.29s30.15,8.06,32.35,13.06" transform="translate(-1087.06 -73.65)"/><path class="cls-2" d="M1251.76,240.16s-2.24-8.12-14-12.88-28.64-10.06-28.64-10.06" transform="translate(-1087.06 -73.65)"/><path class="cls-2" d="M1221.23,249.39s-7.58-9.82-25.24-11.1-32.8-1.71-46.17-12.59-35.08-11.44-35.08-11.44" transform="translate(-1087.06 -73.65)"/><path class="cls-2" d="M1214.08,252.3s-6.78-10.11-15.38-9.88-22.73.32-32.86-3-30.13-21.9-51.1-21.69" transform="translate(-1087.06 -73.65)"/><path class="cls-2" d="M1881.12,472c-8,15-57,32.4-63.64,50s19.16,81.65,13.19,105.63-36.14,33.81-36.14,33.81" transform="translate(-1087.06 -73.65)"/><path class="cls-2" d="M1789.43,649.82s31.51-14.84,34-37.26-11.31-63.24-12.56-82.39" transform="translate(-1087.06 -73.65)"/><path class="cls-2" d="M1782.1,628.79s28.16,3.13,32.24-21.37,0-56.61,0-56.61" transform="translate(-1087.06 -73.65)"/><path class="cls-2" d="M1784.5,615.82s23.47,1.08,23.39-26" transform="translate(-1087.06 -73.65)"/><path class="cls-2" d="M1806.59,550.81c-.1-3.06-6.55-41.06,13.79-49.85s58.2-19,53.72-29.75" transform="translate(-1087.06 -73.65)"/><path class="cls-2" d="M1801.66,545.59s-7.44-31.13,6.23-43.69,43.06-17.9,50.42-21.67" transform="translate(-1087.06 -73.65)"/><path class="cls-2" d="M1792.07,538.82s-3.18-45.48,31.68-55.49" transform="translate(-1087.06 -73.65)"/><path class="cls-2" d="M1784.5,528.17s.79-29.42,17.83-38.36" transform="translate(-1087.06 -73.65)"/><path class="cls-2" d="M1379.18,760.92s-10.15-.56-20.2-18.77" transform="translate(-1087.06 -73.65)"/><path class="cls-2" d="M1366.2,718.31s-5.14,28.48,13,33.22" transform="translate(-1087.06 -73.65)"/><path class="cls-2" d="M1380.12,743.27a28.49,28.49,0,0,1-9.6-26.48c2.59-17.35.91-44.29-34.21-36.16" transform="translate(-1087.06 -73.65)"/><path class="cls-2" d="M1385.88,729.63s-10.3,4.35-10.3-21.09-16.29-30.95-26.34-31.49-27.43,1-39.62-8.86" transform="translate(-1087.06 -73.65)"/><path class="cls-2" d="M1396.32,717.69s-9.71-5.52-11.75-21.06-13.19-25.46-24.18-23.42" transform="translate(-1087.06 -73.65)"/><path class="cls-2" d="M1399.16,709s-6.26-.91-8.93-15.39-21-28.45-27.33-28.08" transform="translate(-1087.06 -73.65)"/><path class="cls-2" d="M1377,690.17s-3.14-12-14.14-13.37" transform="translate(-1087.06 -73.65)"/><path class="cls-2" d="M1663.29,249.25s8.71-1.18,10.13,5.54-5.07,7.42-5.07,7.42" transform="translate(-1087.06 -73.65)"/><path class="cls-2" d="M1667,273.28s25.45-11.12,8.45-29.69" transform="translate(-1087.06 -73.65)"/><path class="cls-2" d="M1660,273.28s12.91,17.9,29.4,1.65-1-42.87-4.49-43.34" transform="translate(-1087.06 -73.65)"/><path class="cls-2" d="M1688,252.36s-3.52-18-21.07-18.89" transform="translate(-1087.06 -73.65)"/><path class="cls-2" d="M1673.62,289.45s27.94-5,29-31-21.74-35.09-21.74-35.09" transform="translate(-1087.06 -73.65)"/><path class="cls-2" d="M1626,286.9s27.18-14.56,24.12-42.36-21.91-34.25-43.58-36.32-34.38,17.21-36.15,28.06" transform="translate(-1087.06 -73.65)"/><path class="cls-2" d="M1579.44,238.42s8.3-28.19,35.93-21.2,28,23.85,28,23.85" transform="translate(-1087.06 -73.65)"/><path class="cls-2" d="M1624.9,278.69s16.95-11.07,12-33.68" transform="translate(-1087.06 -73.65)"/><path class="cls-2" d="M1585.38,239.6s-8.77,26.62,15.73,26.62,10.66-26.39,10.66-26.39" transform="translate(-1087.06 -73.65)"/><path class="cls-2" d="M1653.16,231.59c-.47-1.89-9.4-23.62-37.79-29.83s-45,17.8-45,17.8" transform="translate(-1087.06 -73.65)"/><path class="cls-2" d="M1655.45,218.89s6-16-5.12-23.1a17.54,17.54,0,0,0-20.4.75" transform="translate(-1087.06 -73.65)"/><path class="cls-2" d="M1667,205.86s-10.49-20.2-27.69-20.44-18.84,7.41-18.84,7.41" transform="translate(-1087.06 -73.65)"/><path class="cls-2" d="M1648.39,209.27s2.34-16.4-10.58-8.58" transform="translate(-1087.06 -73.65)"/><path class="cls-2" d="M1466,181.55s-2.9-20.39-32.81-14-44,14.61-69.72,9.9-19.8-26.71-51.23-26.71" transform="translate(-1087.06 -73.65)"/><path class="cls-2" d="M1452.18,185.43s-2.76-11.78-17.12-11.55S1384.42,189,1375.7,189s-27.08-8.3-36-18.16-16.25-14.4-51.34-14.4" transform="translate(-1087.06 -73.65)"/><path class="cls-2" d="M1381.35,215.14s-27.55.38-38.39-4.19-25.2-39.89-28.73-43-8.35-5.1-19.49-5.1" transform="translate(-1087.06 -73.65)"/><path class="cls-2" d="M1390.1,203.25s-16.75,4.82-25.47,4.82-26.14-10.36-35.8-26.52-10.6-21.8-38.16-21.8" transform="translate(-1087.06 -73.65)"/><path class="cls-2" d="M1408,189a103.78,103.78,0,0,1-40.51,8.71c-22.39,0-37.71-31.39-50.64-36.13s-35.1-1.46-35.1-1.46" transform="translate(-1087.06 -73.65)"/><path class="cls-2" d="M1376.17,225.7c-1.2,0-16.72-2.36-22.61-3.53s-29.69-12.68-39.22-39.67" transform="translate(-1087.06 -73.65)"/><path class="cls-2" d="M1499.73,255" transform="translate(-1087.06 -73.65)"/><path class="cls-2" d="M1570.37,278.69s7.5-32.46-18.25-48.61-41.06-12.86-41.06-12.86" transform="translate(-1087.06 -73.65)"/><path class="cls-2" d="M1512.08,284.1c-11.32,5.1-15.5-6.38-6.92-15.35,12-12.54,23.41,4.77,24.1,12.51s-4.07,25.07-28,25.07-28.84-23.93-25.38-38.88,21.05-28.48,42.72-27.85,32.05,20.3,32.05,20.3" transform="translate(-1087.06 -73.65)"/><path class="cls-2" d="M1518.51,259.06s20.33-3.32,21.89,26.47-27,39.2-45.44,35.17-31.4-16.49-31.4-42,28-42.49,28-42.49" transform="translate(-1087.06 -73.65)"/><path class="cls-2" d="M1457.45,247.82c.77-1.24,8.67-22.88,38.14-30.6" transform="translate(-1087.06 -73.65)"/><path class="cls-2" d="M1543.4,192.73s-10.33-1.63-8.74,18.22" transform="translate(-1087.06 -73.65)"/><path class="cls-2" d="M1575.43,197.47s-2.09-19.65-19.06-19.15-31.1,1.62-34.17,21.91" transform="translate(-1087.06 -73.65)"/><path class="cls-2" d="M1528.33,197.47s2.81-9.84,12.12-10.94,19.91-1.58,26.27,2.43" transform="translate(-1087.06 -73.65)"/><path class="cls-2" d="M1514.43,200.23s-2.74-21.87,20.07-26.11,41.17-.11,47.76,17.49" transform="translate(-1087.06 -73.65)"/><path class="cls-2" d="M1561.54,203.92s-1.06,14-20.32,8.92" transform="translate(-1087.06 -73.65)"/><path class="cls-2" d="M1388.66,350.77s-7.54-2.36-4.71-5.18,12.48-1.42,12.48,2.59-.33,11.07-13.12,10.36-10.91-17.66-3.13-22.14,19.31-1.88,23.08,5.18" transform="translate(-1087.06 -73.65)"/><path class="cls-2" d="M1386.54,340.17s13.42-3.77,14.83,9.66" transform="translate(-1087.06 -73.65)"/><path class="cls-2" d="M1361.8,361.67s5.89,16.71,24.74,15.5" transform="translate(-1087.06 -73.65)"/><path class="cls-2" d="M1358.27,370.7s-6.36,16.81,19.79,14" transform="translate(-1087.06 -73.65)"/><path class="cls-2" d="M1349.56,383s.26,13.42,18.26,11.77" transform="translate(-1087.06 -73.65)"/><path class="cls-2" d="M1363,374.56s2.59,8.95,15.08,7.3" transform="translate(-1087.06 -73.65)"/><path class="cls-2" d="M1372.64,361.67s6.83,15,23.55,4.17" transform="translate(-1087.06 -73.65)"/><path class="cls-2" d="M1405.38,338.28c-.47-2.12-5.89-10.91-15.55-10s-16,5.08-18.37,10-2.12,14.61,1.18,17.67" transform="translate(-1087.06 -73.65)"/><path class="cls-2" d="M1408,462.65s-10.36-1.65-8.24,5.65,14.13,3.21,16-5.81-13.19-12.8-23.08-3.61,3.53,18.6,3.53,18.6" transform="translate(-1087.06 -73.65)"/><path class="cls-2" d="M1410.09,449s13.42,1.17,12.48,11.77-5.41,10.13-5.41,10.13" transform="translate(-1087.06 -73.65)"/><path class="cls-2" d="M1421.63,474.76s7.77-9.76,7.77-15.88-9.42-12.49-9.42-12.49" transform="translate(-1087.06 -73.65)"/><path class="cls-2" d="M1432.23,472.7s9.89-8.64,9.89-15.47-6.59-14.84-14.6-14.37" transform="translate(-1087.06 -73.65)"/><path class="cls-2" d="M1434.82,460.58s-3.06-12.07-8.71-14.19" transform="translate(-1087.06 -73.65)"/><path class="cls-2" d="M1393.37,449c-15.22,7.52-20.35,16.49-4.35,28.49" transform="translate(-1087.06 -73.65)"/><path class="cls-2" d="M1383.24,480.55c-3.77-2.59-15.76-11.31-15.42-20.61S1383.24,449,1383.24,449" transform="translate(-1087.06 -73.65)"/><path class="cls-2" d="M1364.4,468.53c-1.65-4-12.49-8.24,5.18-19.54" transform="translate(-1087.06 -73.65)"/><path class="cls-2" d="M1356.15,468.53c0-.7-17.12-12.48,3.45-19.54" transform="translate(-1087.06 -73.65)"/><path class="cls-2" d="M1343.2,449s-8.48.33-6.6,11.59" transform="translate(-1087.06 -73.65)"/><path class="cls-2" d="M1726.65,423.31c.94,0,19.76,6.13,25.9,18.61" transform="translate(-1087.06 -73.65)"/><path class="cls-2" d="M1499,420s4.24-2.94,4.24-7.53-6.09-11.19-4.24-12.37c4.37-2.77,90.07,49.72,87,51.86" transform="translate(-1087.06 -73.65)"/><path class="cls-2" d="M1244,289.61c-2.26-1.35,21.5-7.8,15.7-23.39-5.43-14.6-23.32-17.87-34.39-16.83" transform="translate(-1087.06 -73.65)"/><path class="cls-2" d="M1231.16,294.48s-5.48,1.63-16.17,1.57c-11.7-.08-16.06-13.42-15.91-15.55" transform="translate(-1087.06 -73.65)"/><path class="cls-2" d="M1194.5,307.21c1-.17,7.21,11.21,24.1,11.68" transform="translate(-1087.06 -73.65)"/><path class="cls-2" d="M1218.6,335.58s-16.37,2.12-26.26-5.89" transform="translate(-1087.06 -73.65)"/><path class="cls-2" d="M1192,347.16s12.24,12.09,30.14-4.75" transform="translate(-1087.06 -73.65)"/><path class="cls-2" d="M1301.16,299.89s6.82-3.47,9.61-6.83" transform="translate(-1087.06 -73.65)"/><path class="cls-2" d="M1304.5,263.32s2.63,13-7.86,26.29" transform="translate(-1087.06 -73.65)"/><path class="cls-2" d="M1281.49,283.17s9.34-22.52,3.63-29.22" transform="translate(-1087.06 -73.65)"/><path class="cls-2" d="M1265.94,278.11s14.33-16.53,2.44-30" transform="translate(-1087.06 -73.65)"/><path class="cls-2" d="M1173.33,364.93s5.82,13.28,23.48,2.56" transform="translate(-1087.06 -73.65)"/><path class="cls-2" d="M1240.29,293.06s11.29-14.8,8.46-23.65-14.29-14.67-23.4-13.41" transform="translate(-1087.06 -73.65)"/><path class="cls-2" d="M1210.12,271.16s-2.75,13.26,11.11,17.11" transform="translate(-1087.06 -73.65)"/><path class="cls-2" d="M1223.31,291.65a17.72,17.72,0,0,1-14.19-6.6" transform="translate(-1087.06 -73.65)"/><path class="cls-2" d="M1214.08,276.46c.52.35,4.44,13.07,17.08,5.77" transform="translate(-1087.06 -73.65)"/><path class="cls-2" d="M1207.06,265s6.2-9.91,14.17-11.08" transform="translate(-1087.06 -73.65)"/><path class="cls-2" d="M1253.93,276.46c.47-1.06,4.29-8-4.73-17" transform="translate(-1087.06 -73.65)"/><path class="cls-2" d="M1198.7,294.71s12.36,20.17,28.85,11.62" transform="translate(-1087.06 -73.65)"/><path class="cls-2" d="M1194.5,299s4.3,8.3,7,8.63" transform="translate(-1087.06 -73.65)"/><path class="cls-2" d="M1206.55,310.73s5,4.71,16.07,4.71" transform="translate(-1087.06 -73.65)"/><path class="cls-2" d="M1257,252.3s8,3.24,9,13.92" transform="translate(-1087.06 -73.65)"/><path class="cls-2" d="M1249.93,245.11s10.6-.12,16,8.84" transform="translate(-1087.06 -73.65)"/><path class="cls-2" d="M1272.36,296.48c.76.39,14.78-4.58,18.08-22.84" transform="translate(-1087.06 -73.65)"/><path class="cls-2" d="M1273.79,299.89a29.39,29.39,0,0,0,21-19.39" transform="translate(-1087.06 -73.65)"/><path class="cls-2" d="M1279.13,271.16s2.54,9.68-6,13.91" transform="translate(-1087.06 -73.65)"/><path class="cls-2" d="M1273.1,248.74s7,2.4,5.33,13" transform="translate(-1087.06 -73.65)"/><path class="cls-2" d="M1276.38,318.89s16.41-1.1,21.12-8.16" transform="translate(-1087.06 -73.65)"/><path class="cls-2" d="M1309.05,274.45s.37,3.95-3.74,10.33c-.49.76-1,1.56-1.68,2.39" transform="translate(-1087.06 -73.65)"/><path class="cls-2" d="M1301.16,307.21s6.79-2.06,8.83-12.5" transform="translate(-1087.06 -73.65)"/><path class="cls-2" d="M1201.52,324.39a27.65,27.65,0,0,0,19.71.94" transform="translate(-1087.06 -73.65)"/><path class="cls-2" d="M1168.67,393.4s.94,7.3-5,5.89-3.19-13.52,5-10.3,3,13.6,3,13.6" transform="translate(-1087.06 -73.65)"/><path class="cls-2" d="M1164.9,451.87s-17.9-11.83-18.61-25,20.66-20,20.66-20" transform="translate(-1087.06 -73.65)"/><path class="cls-2" d="M1099.44,415.78s.14,15.15,17.25,14.36" transform="translate(-1087.06 -73.65)"/><path class="cls-2" d="M1115.28,382.8s-1.41,23.32,8.64,25.52" transform="translate(-1087.06 -73.65)"/><path class="cls-2" d="M1116.69,458.88s9.9-4.4,10.21-5.34" transform="translate(-1087.06 -73.65)"/><path class="cls-2" d="M1146.27,389.94s-.14,14.77,10.34,16.88" transform="translate(-1087.06 -73.65)"/><path class="cls-2" d="M1142.52,389.94s-2.46,10.68,3.75,15.39" transform="translate(-1087.06 -73.65)"/><path class="cls-2" d="M1128.31,430.17s7,4.37,13.73-2.23" transform="translate(-1087.06 -73.65)"/><path class="cls-2" d="M1139.62,453.54c.47-.94,8.48-5.81,10.83-10.52" transform="translate(-1087.06 -73.65)"/><path class="cls-2" d="M1137.42,445.37s9-3.3,11.73-9.66" transform="translate(-1087.06 -73.65)"/><path class="cls-2" d="M1131.77,406.82s3.13,11.72,18,10.69" transform="translate(-1087.06 -73.65)"/><path class="cls-2" d="M1138.05,406.82s6.67,9.35,13.3,9" transform="translate(-1087.06 -73.65)"/><path class="cls-2" d="M1123,423s6.07,5.87,12.21,5.76" transform="translate(-1087.06 -73.65)"/><path class="cls-2" d="M1131.77,424.49a19.8,19.8,0,0,1,15.7-3.48" transform="translate(-1087.06 -73.65)"/><path class="cls-2" d="M1128.31,436.51s5.5,2.73,14.21-.8" transform="translate(-1087.06 -73.65)"/><path class="cls-2" d="M1271.12,467.36s20,3.61,21.44-5.18" transform="translate(-1087.06 -73.65)"/><path class="cls-2" d="M1284.79,481.25s12.83-2.87,15.07-10.36" transform="translate(-1087.06 -73.65)"/><path class="cls-2" d="M1286.55,499.39c.36,0,28-9.66,15.43-17" transform="translate(-1087.06 -73.65)"/><path class="cls-2" d="M1310.46,500.57s14-5.51.82-13.89" transform="translate(-1087.06 -73.65)"/><path class="cls-2" d="M1318,512.46s14-2.56,14.13-10.36" transform="translate(-1087.06 -73.65)"/><g id="Beard"><path class="cls-2" d="M1572.2,662.38s12.86,16.56,33.7,11.3S1627,655.59,1627,655.59" transform="translate(-1087.06 -73.65)"/><path class="cls-2" d="M1589.52,673.58s-24.84,8.27-33.32-17.33" transform="translate(-1087.06 -73.65)"/><path class="cls-2" d="M1575.2,674.36s-17.64,10-27-8.54,9-26.52,9-26.52" transform="translate(-1087.06 -73.65)"/><path class="cls-2" d="M1557.26,675.42s-10.6,12.58-22.12,0,0-22.23,0-22.23" transform="translate(-1087.06 -73.65)"/><path class="cls-2" d="M1484.52,665.55s-13.43,11.9-1.42,24.86,28.27,3.06,29.68-5.89-7.58-16.72-17.33-11.78-8.55,12.72,1,12.72,7.34-6.82,0-6.83" transform="translate(-1087.06 -73.65)"/><path class="cls-2" d="M1514.67,693.7s10.6-3.16,7.06-16.65-12.72-7.61-10.36-23.86,8.47-20,8.47-20" transform="translate(-1087.06 -73.65)"/><path class="cls-2" d="M1519.93,663.43c.62-.42,8.79-8.12,8.16-13.61s22-22.74,25.14-22.7" transform="translate(-1087.06 -73.65)"/><path class="cls-2" d="M1526.68,668.19a32.69,32.69,0,0,0,1.73,10.36" transform="translate(-1087.06 -73.65)"/><path class="cls-2" d="M1538.14,656.25s-8.78,13,7.46,20" transform="translate(-1087.06 -73.65)"/><path class="cls-2" d="M1475.65,663.43s-13.82,3.5-4.56,26.74" transform="translate(-1087.06 -73.65)"/><path class="cls-2" d="M1460.73,659.71s-15.08,8.64-2.67,22.61" transform="translate(-1087.06 -73.65)"/><path class="cls-1" d="M1465.6,662.54s-7.38,3.61-4.87,16" transform="translate(-1087.06 -73.65)"/><path class="cls-2" d="M1447.7,657.51s-11.59,1.53-7,18.27" transform="translate(-1087.06 -73.65)"/><path class="cls-2" d="M1433.56,654.84s-6,1.26-5.49,17" transform="translate(-1087.06 -73.65)"/><path class="cls-2" d="M1428.81,647.66s-11-5.85-11,20.53" transform="translate(-1087.06 -73.65)"/><path class="cls-2" d="M1424.69,642s-8.24,1.26-12.25,13.62" transform="translate(-1087.06 -73.65)"/></g><g id="Face_fur" data-name="Face fur"><path class="cls-2" d="M1573.21,590.82s8.74,14.87,17.38,9.53,6.28-12.56,0-16.64-9.43-18.53-.79-19,16.17,4.24,14.13,10.68-9.89-1.89-8.32-4.87" transform="translate(-1087.06 -73.65)"/><path class="cls-2" d="M1588.74,590.46s-15.58-11.55-10.87-25.64S1600,548.07,1608.8,554s17.27,20.76,8.48,29.06-19,8.23-21.2,7.8" transform="translate(-1087.06 -73.65)"/><path class="cls-2" d="M1608.17,582.14s10.84-16.64-7.69-25.59" transform="translate(-1087.06 -73.65)"/><path class="cls-2" d="M1657.81,566.55s24.63-4.67,26.83,18-12.87,33.76-26.22,29-13.5-28.1-.94-28.73,11.62,11,6.44,13.5-8.8-3-6.6-5.18" transform="translate(-1087.06 -73.65)"/><path class="cls-2" d="M1655.59,577.59s-17.27-8-22.92,9.2a26.46,26.46,0,0,0,6.68,27.82" transform="translate(-1087.06 -73.65)"/><path class="cls-2" d="M1640.39,566.16c-1.13.12-15.85,1-20.58,13.53" transform="translate(-1087.06 -73.65)"/><path class="cls-2" d="M1667.06,577.9a21.8,21.8,0,0,1,9.89,20.88" transform="translate(-1087.06 -73.65)"/><path class="cls-2" d="M1572.2,556.55s6.5-9.82,12.29-11.47" transform="translate(-1087.06 -73.65)"/><path class="cls-2" d="M1577,537.78A31.65,31.65,0,0,0,1561.85,554" transform="translate(-1087.06 -73.65)"/><path class="cls-2" d="M1563.66,544.14s-2.44-5.69-6.4-5.32-3.92,13.56-3.92,13.56" transform="translate(-1087.06 -73.65)"/><path class="cls-2" d="M1543.4,550.81s-1.89-13.5,3.29-13,4.48,3.77,4.48,3.77" transform="translate(-1087.06 -73.65)"/><path class="cls-2" d="M1462.2,561.38s-5.67-1.93-5-9,1.15-9.46-4.5-13.56-.43-13.29,4.5-10.93" transform="translate(-1087.06 -73.65)"/><path class="cls-2" d="M1470.39,535s-8,6.59-11.78,2.82-.71-14.42,5.89-10.27" transform="translate(-1087.06 -73.65)"/><path class="cls-2" d="M1473.37,537.78s3.85-2.59,3.15-11.22-12.39-5.5-14.32-3.62-1.71,4.48,3.71,5.77" transform="translate(-1087.06 -73.65)"/><path class="cls-2" d="M1478.54,540.37s12.34-5.41,6.21-14.84-14.36-4-14.36-4" transform="translate(-1087.06 -73.65)"/><path class="cls-2" d="M1491.11,532.75s-5.3-19.46-11.95-16.87,1.74,5.62,1.74,5.62" transform="translate(-1087.06 -73.65)"/></g><g id="Face_features" data-name="Face features"><path class="cls-2" d="M1522.91,576.9s28.89-26.59,46.79-.86-31.09,49.6-46.79,16.62" transform="translate(-1087.06 -73.65)"/><circle class="cls-1" cx="459.64" cy="506.49" r="6.64"/><path class="cls-2" d="M1492.76,555.92s-10.68-13.82-24.18-2.83a22.43,22.43,0,0,0-7.54,23.28" transform="translate(-1087.06 -73.65)"/><circle class="cls-1" cx="391.48" cy="487.72" r="5.17"/><path class="cls-2" d="M1426.58,608.09s6.67,4.51,20.49,1.53,37,21.47,40.78,21.63" transform="translate(-1087.06 -73.65)"/><path class="cls-2" d="M1644.56,627.63s-.9-20.6-22.73-19.54-23.55,16.6-23.55,16.6-13-19.94-24.7-18.53-21.62,6.9-34.34,9.66-27.14-2.16-39.41,10.91" transform="translate(-1087.06 -73.65)"/><path class="cls-2" d="M1516.31,575.39s24-13.35,19.63-21.36" transform="translate(-1087.06 -73.65)"/></g><path class="cls-2" d="M1404.91,728.56s-11.07,2.83-2.59,10.37,16-2.63,10.12-6.38" transform="translate(-1087.06 -73.65)"/><path class="cls-2" d="M1397.61,722.7s-8,4.69-6.36,15.52,23.29,8.95,23.29,8.95" transform="translate(-1087.06 -73.65)"/><path class="cls-2" d="M1396.32,719.77s10.94-8.79,24.84-.71" transform="translate(-1087.06 -73.65)"/><path class="cls-2" d="M1417.78,701s11.18,6.07,13,13.54" transform="translate(-1087.06 -73.65)"/><path class="cls-2" d="M1386.46,741.64s8.32,19.28,21.51,19.28,19.47-8.72,19.16-16.42" transform="translate(-1087.06 -73.65)"/><path class="cls-2" d="M1401.85,751.53s11.46,4.12,15.93-2.79" transform="translate(-1087.06 -73.65)"/><path class="cls-2" d="M1379.35,747.3s5.11,20.28,19.77,23.74,29.69-11.15,29.69-11.15" transform="translate(-1087.06 -73.65)"/><path class="cls-2" d="M1384.26,766.17s21.9,25.12,44.55,1.1" transform="translate(-1087.06 -73.65)"/><path class="cls-2" d="M1411.9,728.56s5.8-2.86,10.52,6.54" transform="translate(-1087.06 -73.65)"/><path class="cls-2" d="M1427.05,695.67s9.34.47,15.15,11.15" transform="translate(-1087.06 -73.65)"/><path class="cls-2" d="M1447.7,709.93s4.71,4.49,4.71,8.38" transform="translate(-1087.06 -73.65)"/><path class="cls-2" d="M1444,685.93s14.52,6.75,16.72,20.89" transform="translate(-1087.06 -73.65)"/><path class="cls-2" d="M1468.74,693.7a27.35,27.35,0,0,0-23.54-7.14" transform="translate(-1087.06 -73.65)"/><path class="cls-2" d="M1434.62,783.76s12.45-6.6,12.29-16.33" transform="translate(-1087.06 -73.65)"/><path class="cls-2" d="M1492.19,783.21s10.49-15.83-2.38-24.32" transform="translate(-1087.06 -73.65)"/><path class="cls-2" d="M1477.45,783.21c.63-.65,6.35-18.83-5.91-25.2" transform="translate(-1087.06 -73.65)"/><path class="cls-2" d="M1446.91,794.81s26.85-18.9,18.69-36.8" transform="translate(-1087.06 -73.65)"/><path class="cls-2" d="M1459.47,759.43a22.63,22.63,0,0,1-6.16,21.55" transform="translate(-1087.06 -73.65)"/><path class="cls-2" d="M1440.77,770.11c.41-.8,4.88-8.34,3.59-16.11" transform="translate(-1087.06 -73.65)"/><path class="cls-2" d="M1437.44,787.36c.4-.17,13-6.27,15-16.75s-4.71-19.33-4.71-19.33" transform="translate(-1087.06 -73.65)"/><path class="cls-2" d="M1431.21,741.83a32,32,0,0,0,11.47,2.67c5.64,0,7.37-5.49,7.37-5.49s19,11.08,20.73,12.52-16.17.51-20.73-12.52" transform="translate(-1087.06 -73.65)"/><path class="cls-2" d="M1501.24,764.13s13.35,12.09.63,22" transform="translate(-1087.06 -73.65)"/><path class="cls-2" d="M1460.73,789.62c1.1-1,13.78-13.24,12.72-22.19" transform="translate(-1087.06 -73.65)"/><path class="cls-2" d="M1419.9,712.31s9.1,3.66,12.17,10.39" transform="translate(-1087.06 -73.65)"/><path class="cls-2" d="M1404.08,719.77s14.27,1.65,16.14,11.86" transform="translate(-1087.06 -73.65)"/><path class="cls-2" d="M1439.59,691.35s14.54,7,15.6,19.86" transform="translate(-1087.06 -73.65)"/><path class="cls-2" d="M1429.76,701.83s8.71,2.47,11,10.48" transform="translate(-1087.06 -73.65)"/><path class="cls-2" d="M1728.49,612.56s-4.67-14.37,8.52-9.71,16,18.53,6.12,24.78-22.25,2.53-22.25,2.53" transform="translate(-1087.06 -73.65)"/><path class="cls-2" d="M1738.66,613.51s.12,10.12-13.07,8" transform="translate(-1087.06 -73.65)"/><path class="cls-2" d="M1723.23,619.28s-17-8.56-3.06-22.54,33.33,5.7,31.91,12.76" transform="translate(-1087.06 -73.65)"/><path class="cls-2" d="M1723.47,625.28c-.59-.35-19.55-2.47-15.67-21.43s25.44-18.77,30.86-15.51" transform="translate(-1087.06 -73.65)"/><path class="cls-2" d="M1735.83,582.53s25.91,1.3,26.73,26.85" transform="translate(-1087.06 -73.65)"/><path class="cls-2" d="M1746.67,579.59s15.42-.35,22,21.67-11.54,32.27-11.54,32.27" transform="translate(-1087.06 -73.65)"/><path class="cls-2" d="M1737.72,638.51s17.54-2.94,19.94-27.79" transform="translate(-1087.06 -73.65)"/><path class="cls-2" d="M1739.92,645.58s16,1,26.85-12.05,9.89-32.55,8.47-37.57" transform="translate(-1087.06 -73.65)"/><path class="cls-2" d="M1703.56,598.78s4.71-16,20.14-17.42" transform="translate(-1087.06 -73.65)"/><path class="cls-2" d="M1739.92,666.46s10.82.63,12.24-7.85" transform="translate(-1087.06 -73.65)"/><path class="cls-2" d="M1739.47,674s16.29-.57,20.54-12.6" transform="translate(-1087.06 -73.65)"/><path class="cls-2" d="M1770.13,655.59s7.94,28.77-22.44,31" transform="translate(-1087.06 -73.65)"/><path class="cls-2" d="M1775.09,649.82s11.46,8.95,1.72,30-41,17.74-41,17.74" transform="translate(-1087.06 -73.65)"/><path class="cls-2" d="M1782.1,680.44s11.47-18.56-5.13-33.92" transform="translate(-1087.06 -73.65)"/><path class="cls-2" d="M1798.17,666.47c2.36.15,28.11-6.6,35.49-24.35" transform="translate(-1087.06 -73.65)"/><path class="cls-2" d="M1787.34,600.2s10.34,2.35,18.2-10.13" transform="translate(-1087.06 -73.65)"/><path class="cls-2" d="M1789.39,544.29s12,2.21,10.25,19.28-12.3,22-12.3,22" transform="translate(-1087.06 -73.65)"/><path class="cls-2" d="M1779.76,578.76c.59-.35,5.85-5.65,7.58-10.71" transform="translate(-1087.06 -73.65)"/><path class="cls-2" d="M1780.63,585.59s15.34-10.36,12.94-26.38" transform="translate(-1087.06 -73.65)"/><path class="cls-1" d="M1418.54,221.9s-4.33-6.81-11.75-4.68-10.48,22.49,2,24.61" transform="translate(-1087.06 -73.65)"/><path class="cls-1" d="M1417.58,233s-3.72-4.59-8.67-2" transform="translate(-1087.06 -73.65)"/><path class="cls-1" d="M1396.55,235.24s2.82,15,19.55,11.19" transform="translate(-1087.06 -73.65)"/><path class="cls-1" d="M1391,240.05s3.06,18.15,25.09,17.21" transform="translate(-1087.06 -73.65)"/><path class="cls-1" d="M1397.88,215.84s12.12-12.93,23.59-3.58" transform="translate(-1087.06 -73.65)"/><path class="cls-1" d="M1391,213.08s16.4-24.14,35-9" transform="translate(-1087.06 -73.65)"/><path class="cls-1" d="M1392.9,219.73" transform="translate(-1087.06 -73.65)"/><path class="cls-1" d="M1381.35,226.52" transform="translate(-1087.06 -73.65)"/><path class="cls-1" d="M1586.9,317.32c.74-12.18,21.26-9.71,21.28,5s-12.91,21-26.3,16.68-13.39-13.21-13.39-13.21" transform="translate(-1087.06 -73.65)"/><path class="cls-1" d="M1556.24,318.74s.82,23.33,24.14,28.09,35.21-13.75,35.21-23.87-8.36-17.18-14-17.41" transform="translate(-1087.06 -73.65)"/><path class="cls-1" d="M1568.89,310.27q8.8-20.19,35.41-16" transform="translate(-1087.06 -73.65)"/><path class="cls-1" d="M1560.56,311s.39-8.83,6.87-11.66" transform="translate(-1087.06 -73.65)"/><path class="cls-1" d="M1610.35,369.14s19-6.22,26.09-22.31,4.12-27.74.47-35.28" transform="translate(-1087.06 -73.65)"/><path class="cls-1" d="M1556.82,339c5.32,10.15,13,15.61,24.14,14.39" transform="translate(-1087.06 -73.65)"/><path class="cls-1" d="M1488.52,333.57s4.47,17,22.41,8.49" transform="translate(-1087.06 -73.65)"/><path class="cls-1" d="M1526.52,339s-7.85,11.29-21,12.35-20.57-9.9-20.57-9.9" transform="translate(-1087.06 -73.65)"/><path class="cls-1" d="M1464.65,334.18s-2.14,18.09,18.33,25,40.4-5.21,40.4-5.21" transform="translate(-1087.06 -73.65)"/><path class="cls-1" d="M1445.34,309.24s-15.23.85-14.76-7.43,11-9.22,14.76-5.14" transform="translate(-1087.06 -73.65)"/><path class="cls-1" d="M1429.17,316.3s18.45,8.24,24.37-5.34" transform="translate(-1087.06 -73.65)"/><path class="cls-1" d="M1422.1,314.87s8,14.62,27.79,9.28" transform="translate(-1087.06 -73.65)"/><path class="cls-1" d="M1447.7,330.74s-17.75,3.59-27.48-9.9-4.42-35.33,16.48-35.94" transform="translate(-1087.06 -73.65)"/><path class="cls-1" d="M1436.86,280.45s-13.82-3.88-24.34,12.14-2.43,32.5,3.58,37.37" transform="translate(-1087.06 -73.65)"/><path class="cls-1" d="M1471,326.57s-1.23,17,12.55,27.14" transform="translate(-1087.06 -73.65)"/><path class="cls-2" d="M1631.19,512s10.19-17.36,32.57-5.11,6.43,50.64,6.43,50.64" transform="translate(-1087.06 -73.65)"/><path class="cls-2" d="M1641.74,512.41s13.85-3.84,21.39,7.2,8.84,28.85-.92,46.55" transform="translate(-1087.06 -73.65)"/><path class="cls-2" d="M1660.15,557.57s6.85-15.23.44-23.67" transform="translate(-1087.06 -73.65)"/><path class="cls-2" d="M1628.74,507.71c.63-.94,8.48-13.35,26.85-10.52s34.55,19.15,30.15,47.1" transform="translate(-1087.06 -73.65)"/><path class="cls-2" d="M1634.24,494.52s22.61-14.29,44.28,5.81,11.66,62.88,8,69.79" transform="translate(-1087.06 -73.65)"/><path class="cls-2" d="M1688.25,598.78c.63-1.25,21.36-45.69,12.72-73.17s-31-46.68-64.06-37.53" transform="translate(-1087.06 -73.65)"/><path class="cls-2" d="M1624.49,489.6s11.61-11.64,45.7-7.88,39.56,47.58,41.18,59.59" transform="translate(-1087.06 -73.65)"/><path class="cls-2" d="M1605.9,482.2s-8.32-15.13-25.28-11" transform="translate(-1087.06 -73.65)"/><path class="cls-2" d="M1611.32,476.34s-15.2-18-35.42-7.81" transform="translate(-1087.06 -73.65)"/><path class="cls-2" d="M1616.18,472s-33-27.31-52.52,3.33" transform="translate(-1087.06 -73.65)"/><path class="cls-2" d="M1517.18,482.2s8.55-17.08,29.51-10.19" transform="translate(-1087.06 -73.65)"/><path class="cls-2" d="M1508.54,486.68s5.69-29,39.71-18.61" transform="translate(-1087.06 -73.65)"/><path class="cls-2" d="M1663.33,465.53s19.11-11.11,36.7,6.48,23.32,24.57,28.46,54.55" transform="translate(-1087.06 -73.65)"/><path class="cls-2" d="M1669.16,468.07s27.06-.2,49.38,40.92" transform="translate(-1087.06 -73.65)"/><path class="cls-2" d="M1699.4,464.27s14.56,7.72,19.14,19.06" transform="translate(-1087.06 -73.65)"/><path class="cls-2" d="M1688.41,447.42s40.67-11.74,56.84,55.13" transform="translate(-1087.06 -73.65)"/><path class="cls-2" d="M1736.33,527s4-36.11-7.84-52.45S1707.1,452,1707.1,452" transform="translate(-1087.06 -73.65)"/><path class="cls-2" d="M1723.7,538.82s-4.32,24.7,6.81,32" transform="translate(-1087.06 -73.65)"/><path class="cls-2" d="M1739.92,533.9s-22.3,23.55,14.6,39.51" transform="translate(-1087.06 -73.65)"/><path class="cls-2" d="M1749.81,529.86s-18.22,12.24-6.6,25.9,33.27-5.18,26.92-15.86-15.77-6.28-16.55,1.41" transform="translate(-1087.06 -73.65)"/><path class="cls-2" d="M1764.72,542.28s-1.25,9.71-8.79,8.53-8.39-11.71-6.21-15.63,14.38-14.3,26.37,1.58" transform="translate(-1087.06 -73.65)"/><path class="cls-2" d="M1777.91,541.31s-.7,17.83-15.35,26.74" transform="translate(-1087.06 -73.65)"/><path class="cls-2" d="M1636.91,468.77s-3.93-18.06-20.73-19.94" transform="translate(-1087.06 -73.65)"/><path class="cls-2" d="M1641.74,443.57s9.24,3.37,15.86,15.23" transform="translate(-1087.06 -73.65)"/><path class="cls-2" d="M1589.09,786.11s.24,7.54,4.48,7.54,4.55-6.29,4.55-6.29" transform="translate(-1087.06 -73.65)"/><path class="cls-2" d="M1603.46,788s2.12,7.26-6.36,11.5" transform="translate(-1087.06 -73.65)"/><path class="cls-2" d="M1608.41,792.16s2.12,13.66-8,17.9" transform="translate(-1087.06 -73.65)"/><path class="cls-2" d="M1615.71,799.46s3.06,18.84-18.61,15.54" transform="translate(-1087.06 -73.65)"/><path class="cls-2" d="M1622.78,804.75s-1.42,13.55-11.55,15.44" transform="translate(-1087.06 -73.65)"/><path class="cls-2" d="M1640.21,828s4.94-1.41,4.94,12.25" transform="translate(-1087.06 -73.65)"/><path class="cls-2" d="M1656.46,847.51s2.35-15.78-3.06-23.56" transform="translate(-1087.06 -73.65)"/><path class="cls-2" d="M1688.49,838.09s-4.25-10.37-5.31-17.9" transform="translate(-1087.06 -73.65)"/><path class="cls-2" d="M1674.66,840.21s-1.24-14.37-4.07-18.38-1.18,10.37-1.18,10.37" transform="translate(-1087.06 -73.65)"/><path class="cls-2" d="M1676.24,791s12.12,1.88,15.25,10.13" transform="translate(-1087.06 -73.65)"/><path class="cls-2" d="M1676.24,786.11s5.41.47,6.94,1.85" transform="translate(-1087.06 -73.65)"/><path class="cls-2" d="M1673.18,799.46c-.24.47,8.24,5.89,8.48,12" transform="translate(-1087.06 -73.65)"/><path class="cls-2" d="M1667.06,808.88s9.41,4.71,10.36,13.66" transform="translate(-1087.06 -73.65)"/><path class="cls-2" d="M1624,826.55s8.48-6.84,18.73-6.36" transform="translate(-1087.06 -73.65)"/><path class="cls-1" d="M1709.77,750.94s-2.28,13.82,15.82,16.49,23.46-5.52,23.46-5.52-2.46,20.33,13.51,20.54,14.41-11.4,14.41-11.4,4.82,26.45,12.46,25,21.46-25,21.46-25,12.25,28.57,20.73,27,17.9-38.62,17.9-38.62,9.42,10.68,13.5,9.89,8.17-19,6-30.31-16.65-13.51-16.65-13.51-4.51-12.36-12.52-15.07-9.77-3.42-12.48-4.71-19-8.18-25.12-6.33" transform="translate(-1087.06 -73.65)"/><path class="cls-2" d="M1749.05,761.91s12.77-22.28,8.61-31.7" transform="translate(-1087.06 -73.65)"/><path class="cls-2" d="M1771.07,760.92s6.53-.86,5.9,11.89" transform="translate(-1087.06 -73.65)"/><path class="cls-2" d="M1786,751.88s.67-6.59,5.19-6.59,9.45,2.12,10.4,8.24,9.34,3.48,9.34,17.52" transform="translate(-1087.06 -73.65)"/><path class="cls-2" d="M1821.57,747.62s1.88-8.25,7.77-8.25,7.77,11.31,11.54,11.54,7.3.34,7.3,11" transform="translate(-1087.06 -73.65)"/><path class="cls-2" d="M1845.05,730.54s4.19-5.52,7.46-4.71" transform="translate(-1087.06 -73.65)"/><path class="cls-2" d="M1850.07,734.92s11.77-4.94,11.54,15.31" transform="translate(-1087.06 -73.65)"/><path class="cls-2" d="M1824.63,758.17s8.34-4.64,8.34,18.44" transform="translate(-1087.06 -73.65)"/><path class="cls-2" d="M1791.15,759.18s7.8,8.72,2.39,17.43" transform="translate(-1087.06 -73.65)"/><path class="cls-2" d="M1780.63,728.14s1,15-6.59,17.15" transform="translate(-1087.06 -73.65)"/><path class="cls-2" d="M1727.59,745.29s.7,9.89,8.24,9.89" transform="translate(-1087.06 -73.65)"/><path class="cls-2" d="M1794.53,730.54s5.39,6.48,4.6,11.77" transform="translate(-1087.06 -73.65)"/><path class="cls-2" d="M1791.15,745.29s1.71-14.51-1.72-17.15" transform="translate(-1087.06 -73.65)"/><path class="cls-2" d="M1809.32,731.86s9,10.85,8.24,16.73" transform="translate(-1087.06 -73.65)"/><path class="cls-2" d="M1823.75,725.75s8.18-.61,12.65,8.64" transform="translate(-1087.06 -73.65)"/><path class="cls-2" d="M1765,736.42s8.63-2.44,7.22-13" transform="translate(-1087.06 -73.65)"/><path class="cls-2" d="M1457.45,225.7c-2-11.2,12.87-13.87,14.88-2.67" transform="translate(-1087.06 -73.65)"/><path class="cls-2" d="M1448.8,219.73s6.75-22.74,30.07-8.78" transform="translate(-1087.06 -73.65)"/><path class="cls-2" d="M1443.14,218.16s10.37-25.75,35.73-12.4" transform="translate(-1087.06 -73.65)"/><path class="cls-2" d="M1443.14,239.36s-12.4-14.83-.78-29.32" transform="translate(-1087.06 -73.65)"/><path class="cls-2" d="M1487.27,201.92s-6.6-10.45-23.71-5.27" transform="translate(-1087.06 -73.65)"/><path class="cls-2" d="M1492.6,200.23s-10.28-14.48-33.62-8.62-25.57,23.54-25.57,23.54" transform="translate(-1087.06 -73.65)"/><path class="cls-2" d="M1425.87,219.73s-3.35,18.53,11.67,29.21" transform="translate(-1087.06 -73.65)"/><path class="cls-2" d="M1690.14,652a17.51,17.51,0,0,1,9.42,14.45c.71,10.51-21.43,12.57-25.91,0s-7.29-25,14.37-28,30.11,12.64,34,29.68" transform="translate(-1087.06 -73.65)"/><path class="cls-2" d="M1702.44,658.17s7.25,9.72,2.07,17-24.28,9.58-34.52-4.06-7.41-34.91,12.14-39.82,44,4.48,49.58,28.29-15.79,36-15.79,36" transform="translate(-1087.06 -73.65)"/><path class="cls-2" d="M1668.47,692.53s13.66,15.68,43.34,6.54" transform="translate(-1087.06 -73.65)"/><path class="cls-2" d="M1649.39,667.74s6.26,16.78,14.79,20.78" transform="translate(-1087.06 -73.65)"/><path class="cls-2" d="M1696.28,621.81S1664.13,604,1640.39,644" transform="translate(-1087.06 -73.65)"/><path class="cls-2" d="M1649.39,658.17s-2.9-15.81,6.2-24.64" transform="translate(-1087.06 -73.65)"/><path class="cls-2" d="M1636.91,652s-5.05,19.39,3.48,28.42" transform="translate(-1087.06 -73.65)"/><path class="cls-2" d="M1670.52,702.89s-18.25-3.93-24.19-13.19" transform="translate(-1087.06 -73.65)"/><path class="cls-2" d="M1470.39,618.65s-1.81-5.73,5.26-7.62,7.41,13.31-.93,10.82" transform="translate(-1087.06 -73.65)"/><path class="cls-2" d="M1499.73,255c53.22-13.83,63.43,59.94,12.35,72.33s-91.76-76.9-3.12-101.81c46.22-13,55.72,48.27,55.72,48.27" transform="translate(-1087.06 -73.65)"/><path class="cls-2" d="M1724.56,249.17s82.22,18.45,59.87-58.5" transform="translate(-1087.06 -73.65)"/></svg>