<svg id="Name" xmlns="http://www.w3.org/2000/svg" viewBox="0 0 1525.41 678.97"><defs><style>.word-stroke{stroke:#fff;stroke-linecap:round;stroke-miterlimit:10;}</style></defs><path class="word-stroke" d="M244.31,304.09v25.22c0,49-10.47,97.09-88.52,97.09-42.35,0-84.23-14.75-84.23-90.42V188c0-67.58,37.12-88,86.14-88,77.57,0,86.61,51.87,86.61,87.56V217H167.69V179.4c0-12.85-.95-20.46-10-20.46-8.57,0-10.47,6.19-10.47,20.46V345.5c0,15.7,1.9,21.41,9.52,21.41,8.56,0,10.94-5.71,10.94-22.84v-40Z" transform="translate(-62.92 -98.43)"/><path class="word-stroke" d="M338.54,355l-3.81,66.63h-77.1l33.79-316.95H411.83l33.31,317H367.09L363.28,355ZM360,292.19c-1.42-24.27-7.14-107.07-8.56-124.21h-3.33c-.48,13.8-5.24,93.28-6.67,124.21Z" transform="translate(-62.92 -98.43)"/><path class="word-stroke" d="M631.69,344.54c0-42.35.47-114.21.95-156.57h-3.81c-5.71,78-16.65,212.25-17.61,233.67H556c-2.38-44.73-12.37-174.18-18.09-235.1h-3.8c.47,37.6,2.38,100.9,2.38,155.62v79.48h-69V104.69H570.3c3.33,29.5,10.47,101.37,12.85,139.44H586c4.28-44.74,6.19-74.72,12.85-139.44H705.93v317H631.69Z" transform="translate(-62.92 -98.43)"/><path class="word-stroke" d="M870.11,286H812.05V359.3h70l-8.57,62.34H736.38V104.69H873V167H812.05v56.63h58.06Z" transform="translate(-62.92 -98.43)"/><path class="word-stroke" d="M977.66,287.91V421.64H902.47V104.69h93.75c61.87,0,81.38,31.41,81.38,81.38v11.42c0,35.69-11.9,53.78-30.46,63.29,22.84,10.47,29,28.08,29,74.25,0,38.07-.47,74.24.95,86.61h-73.29c-3.33-5.71-4.28-27.6-4.28-99.94,0-31.41-2.86-33.79-18.08-33.79Zm.47-56.16h5.72c12.37,0,17.6-4.28,17.6-24.27V182.26c0-17.61-4.28-21.42-19-21.42h-4.29Z" transform="translate(-62.92 -98.43)"/><path class="word-stroke" d="M1278,187.49V338.83c0,64.25-35.22,87.57-90.42,87.57-53.3,0-84.71-25.22-84.71-87.57V183.69c0-58.54,36.17-83.76,86.61-83.76S1278,125.63,1278,187.49Zm-99.46-9V347.88c0,11.89,3.33,19,11.42,19,7.14,0,11.42-6.19,11.42-19V178c0-14.28-3.33-18.56-11.9-18.56C1182.29,159.42,1178.49,164.18,1178.49,178.45Z" transform="translate(-62.92 -98.43)"/><path class="word-stroke" d="M1306.5,421.64V104.69h79c7.62,34.74,31.41,159.43,33.32,172.75h3.33c-5.24-50-11.42-131.83-11.42-161.33V104.69h70.91v317h-85.19c-3.81-27.13-26.18-173.23-27.6-183.7H1365c2.38,35.22,8.57,139.44,8.57,176.09v7.61Z" transform="translate(-62.92 -98.43)"/><path class="word-stroke" d="M102,516.53H64.42V454.18H214.81v62.35h-37.6V771.14H102Z" transform="translate(-62.92 -98.43)"/><path class="word-stroke" d="M236.22,454.18h75.67V573.64h22.84V454.18h76.62v317H334.73V636.46H311.89V771.14H236.22Z" transform="translate(-62.92 -98.43)"/><path class="word-stroke" d="M615,537V688.33c0,64.25-35.22,87.57-90.42,87.57-53.31,0-84.72-25.23-84.72-87.57V533.19c0-58.54,36.17-83.76,86.62-83.76S615,475.12,615,537Zm-99.47-9V697.37c0,11.9,3.33,19,11.43,19,7.13,0,11.42-6.19,11.42-19V527.47c0-14.27-3.33-18.56-11.9-18.56C519.38,508.91,515.57,513.67,515.57,528Z" transform="translate(-62.92 -98.43)"/><path class="word-stroke" d="M718.78,637.41V771.14H643.59v-317h93.75c61.87,0,81.38,31.41,81.38,81.38V547c0,35.69-11.89,53.77-30.45,63.29,22.84,10.47,29,28.08,29,74.24,0,38.08-.48,74.24,1,86.62H745c-3.33-5.71-4.28-27.6-4.28-99.94,0-31.41-2.86-33.79-18.09-33.79Zm.48-56.16H725c12.37,0,17.61-4.28,17.61-24.27V531.76c0-17.61-4.28-21.42-19-21.42h-4.28Z" transform="translate(-62.92 -98.43)"/><path class="word-stroke" d="M846.8,771.14v-317h79c7.61,34.75,31.41,159.43,33.31,172.76h3.33C957.21,577,951,495.11,951,465.61V454.18h70.91v317H936.74c-3.8-27.13-26.17-173.23-27.6-183.7h-3.81c2.38,35.22,8.57,139.44,8.57,176.08v7.62Z" transform="translate(-62.92 -98.43)"/><path class="word-stroke" d="M1079,516.53h-37.6V454.18h150.39v62.35h-37.6V771.14H1079Z" transform="translate(-62.92 -98.43)"/><path class="word-stroke" d="M1383.14,537V688.33c0,64.25-35.21,87.57-90.42,87.57-53.3,0-84.71-25.23-84.71-87.57V533.19c0-58.54,36.17-83.76,86.62-83.76S1383.14,475.12,1383.14,537Zm-99.46-9V697.37c0,11.9,3.33,19,11.42,19,7.14,0,11.42-6.19,11.42-19V527.47c0-14.27-3.33-18.56-11.89-18.56C1287.49,508.91,1283.68,513.67,1283.68,528Z" transform="translate(-62.92 -98.43)"/><path class="word-stroke" d="M1411.7,771.14v-317h79c7.61,34.75,31.41,159.43,33.31,172.76h3.33c-5.23-50-11.42-131.83-11.42-161.33V454.18h70.91v317h-85.19c-3.8-27.13-26.17-173.23-27.6-183.7h-3.81c2.38,35.22,8.57,139.44,8.57,176.08v7.62Z" transform="translate(-62.92 -98.43)"/></svg>