<svg id="Layer_1" data-name="Layer 1" xmlns="http://www.w3.org/2000/svg" viewBox="0 0 1412.15 329.47"><defs><style>.word-stroke{stroke:#fff;stroke-miterlimit:10;stroke-width:3px;}</style></defs><path class="word-stroke" d="M73.46,104.69h94.71c55.2,0,80.43,32.83,80.43,86.61v20.94c0,59-22.85,90.42-81.86,90.42H149.13v119H73.46Zm75.67,137.06h6.19c12.37,0,16.66-6.19,16.66-25.23V182.26c0-17.13-6.67-21.42-17.14-21.42h-5.71Z" transform="translate(-71.96 -98.43)"/><path class="word-stroke" d="M350.44,287.91V421.64H275.25V104.69H369c61.87,0,81.38,31.41,81.38,81.38v11.42c0,35.69-11.9,53.78-30.46,63.29,22.84,10.47,29,28.08,29,74.25,0,38.07-.47,74.24.95,86.61H376.61c-3.33-5.71-4.28-27.6-4.28-99.94,0-31.41-2.86-33.79-18.08-33.79Zm.47-56.16h5.72c12.37,0,17.6-4.28,17.6-24.27V182.26c0-17.61-4.28-21.42-19-21.42h-4.29Z" transform="translate(-71.96 -98.43)"/><path class="word-stroke" d="M650.73,187.49V338.83c0,64.25-35.22,87.57-90.42,87.57-53.3,0-84.71-25.22-84.71-87.57V183.69c0-58.54,36.16-83.76,86.61-83.76S650.73,125.63,650.73,187.49Zm-99.46-9V347.88c0,11.89,3.33,19,11.42,19,7.14,0,11.42-6.19,11.42-19V178c0-14.28-3.33-18.56-11.9-18.56C555.07,159.42,551.27,164.18,551.27,178.45Z" transform="translate(-71.96 -98.43)"/><path class="word-stroke" d="M771.13,335.5c0,54.73-5.71,90.9-72.81,90.9-12.85,0-26.18-.95-30-1.43V364.06c1.42,0,9,.47,11.89.47,13.81,0,15.23-7.14,15.23-21.41V104.69h75.67Z" transform="translate(-71.96 -98.43)"/><path class="word-stroke" d="M933.89,286H875.83V359.3h70l-8.57,62.34H800.16V104.69H936.75V167H875.83v56.63h58.06Z" transform="translate(-71.96 -98.43)"/><path class="word-stroke" d="M1135.67,304.09v25.22c0,49-10.47,97.09-88.52,97.09-42.35,0-84.23-14.75-84.23-90.42V188c0-67.58,37.12-88,86.14-88,77.57,0,86.61,51.87,86.61,87.56V217h-76.62V179.4c0-12.85-1-20.46-10-20.46-8.57,0-10.47,6.19-10.47,20.46V345.5c0,15.7,1.9,21.41,9.52,21.41,8.56,0,10.94-5.71,10.94-22.84v-40Z" transform="translate(-71.96 -98.43)"/><path class="word-stroke" d="M1189.44,167h-37.59V104.69h150.38V167h-37.59V421.64h-75.2Z" transform="translate(-71.96 -98.43)"/><path class="word-stroke" d="M1387,317.89v25.7c0,19,3.33,23.8,10.47,23.8,6.66,0,9-6.67,9-18.56,0-23.8-2.85-30.94-31.88-58.06-38.55-36.17-56.64-54.73-56.64-100.9,0-50.92,19-89.94,80.43-89.94,67.58,0,79.48,41.4,79.48,84.23v19.52h-66.63V179.4c0-16.18-2.85-20.46-10-20.46-5.71,0-9,4.76-9,19,0,16.65,2.86,23.32,26.66,44.73,43.3,38.55,63.77,58.54,63.77,109,0,58.06-17.61,94.71-84.71,94.71-60,0-82.81-32.84-82.81-89.47v-19Z" transform="translate(-71.96 -98.43)"/></svg>