<svg id="Layer_4" data-name="Layer 4" xmlns="http://www.w3.org/2000/svg" viewBox="0 0 1613.18 668.72"><defs><style>.stroke,.stroke-2{fill:none;stroke:#ce2525;stroke-linecap:round;stroke-miterlimit:10;}.stroke{stroke-width:3px;}.stroke-2{stroke-width:2px;}</style></defs><path class="stroke" d="M280,608.42s20.39-10.2,17,6.16-37.8,19.33-39.92-1.91,29.31-56.27,65.41-27.18" transform="translate(-163.79 -165.32)"/><path class="stroke" d="M247.33,632.21s-15.71-6.37-15.29,8.92,44.77,12,31.09-17.37-79.93-6.42-57.85,31.38" transform="translate(-163.79 -165.32)"/><path class="stroke" d="M202.52,649.3s-42.26-12.84-36.74,25.81,59.47,22.93,53.94,2.54" transform="translate(-163.79 -165.32)"/><path class="stroke" d="M344.65,614.58a12,12,0,0,0-6.85,1.91" transform="translate(-163.79 -165.32)"/><path class="stroke" d="M396.55,640.69" transform="translate(-163.79 -165.32)"/><path class="stroke" d="M356.71,685.6c4.71,4.61,8.72,9.45,15.49,9.61a24.7,24.7,0,0,0,9-1.54" transform="translate(-163.79 -165.32)"/><path class="stroke" d="M203.43,697.1s6.46,19.2,29.85,15.38S263.05,684,276.64,684s15.29,22.51,36.52,17c12.18-3.16,15.84-11.21,19.31-17" transform="translate(-163.79 -165.32)"/><path class="stroke" d="M191.06,662.47s-17.41,5.42,1.64,15" transform="translate(-163.79 -165.32)"/><path class="stroke" d="M261.77,663.78s4.78-6.72,14.65-4.49S288.21,671.39,299,670c3.34-.45,6.63-2.71,9.91-5.65" transform="translate(-163.79 -165.32)"/><path class="stroke" d="M1242.5,476.5s-51-21-67-106,79-172,176-184,200,16,241,63,61,97,63,143" transform="translate(-163.79 -165.32)"/><path class="stroke" d="M1263,384s-12,53,7,74" transform="translate(-163.79 -165.32)"/><path class="stroke" d="M1614.5,392.5s-77.22-175.81-262.62-107.26" transform="translate(-163.79 -165.32)"/><path class="stroke" d="M1642.5,455.5a23.13,23.13,0,0,1,6,7,17.27,17.27,0,0,1,2,7s-9,8-21-5,0-26-12-34-10,3-17-7,.5-26.5.5-26.5,5,1,8-2,15,2,20,2,16-11,27-3,16,15,15,27-2,10-2,10,13,10,15,19-6,13-6,13-11-20-25-15-13,15-13,15" transform="translate(-163.79 -165.32)"/><path class="stroke" d="M1677.5,463.5s9,31,19,50,32,40,31,41-11-10-19-7-13,36-31,23,10-32,1-40-35,23-46,16,14-46,18-58,0-19,0-19" transform="translate(-163.79 -165.32)"/><path class="stroke" d="M1653.64,539.82s19.15.06,19,13.37" transform="translate(-163.79 -165.32)"/><path class="stroke" d="M1293.5,509.5s35,32,38,47-4,26-29,12-29-17-33-13,14,20,12,28-27-10-30-6,11,14,8,17-19-11-25-7-5,7-5,7-1-13,23-33,11-40,11-40" transform="translate(-163.79 -165.32)"/><path class="stroke" d="M1300.37,567.31s-16.15-2.27-20,10" transform="translate(-163.79 -165.32)"/><path class="stroke" d="M1259.84,592.83s8.94-9.8,11.3-9.06" transform="translate(-163.79 -165.32)"/><path class="stroke" d="M1232.58,470.75s-2.08,9.75,2.92,14.75,20,5,20,5" transform="translate(-163.79 -165.32)"/><path class="stroke" d="M1240.5,488.5s5,18,19,15" transform="translate(-163.79 -165.32)"/><path class="stroke" d="M1252.5,503.5s2,8,10,7" transform="translate(-163.79 -165.32)"/><path class="stroke" d="M1257.5,509.5s0,10,7,12" transform="translate(-163.79 -165.32)"/><path class="stroke" d="M1292.5,470.5s-13-15-28-11" transform="translate(-163.79 -165.32)"/><path class="stroke-2" d="M1243.5,482.5s10-12,19,1" transform="translate(-163.79 -165.32)"/><path class="stroke" d="M1246.5,479.5" transform="translate(-163.79 -165.32)"/><path class="stroke-2" d="M1246,480s-3-1-3-3" transform="translate(-163.79 -165.32)"/><path class="stroke-2" d="M1279,499c1,1-11-16-17-16s-8,7-7,8c.62.62,5.89-.9,9.94-.45S1278.25,498.2,1279,499Z" transform="translate(-163.79 -165.32)"/><path class="stroke-2" d="M1265,492s-4,2-5,5,0,5,0,6,16-3,16-3S1268,492,1265,492Z" transform="translate(-163.79 -165.32)"/><path class="stroke-2" d="M1263,510c1,1,3,0,5,0a56.38,56.38,0,0,1,7,1s-6-8.8-10.5-8.4S1262,509,1263,510Z" transform="translate(-163.79 -165.32)"/><path class="stroke-2" d="M1265,522s1-1,3,0,4,5,4,5,1-11-2-13S1262,517,1265,522Z" transform="translate(-163.79 -165.32)"/><path class="stroke-2" d="M1268,511a5.8,5.8,0,0,1,.88,2.55" transform="translate(-163.79 -165.32)"/><path class="stroke-2" d="M1264.33,459.06c-1,0-4.33,4.94-8.33,5.94s-14.5-.5-14.5-.5,4,11,16,11S1265.33,459.06,1264.33,459.06Z" transform="translate(-163.79 -165.32)"/><path class="stroke-2" d="M1261.5,475.5a12,12,0,0,0,8,3c5,0,11-6,11-6" transform="translate(-163.79 -165.32)"/><path class="stroke-2" d="M1273.57,477.45s-4.69,26.89,27.42,33.29" transform="translate(-163.79 -165.32)"/><path class="stroke-2" d="M1610.49,394.23s-4.06-9.89-11.18-5.93-9.69,26.7-4.35,38.57,16.38,16.22,20.85,2.57" transform="translate(-163.79 -165.32)"/><path class="stroke-2" d="M1615.81,403.13s-1.27,5.14,2.29,5.74,3.76-.4,6.92,0,5.94,3.76,10.09,3.76,11.08,2.17,17.41,12.66" transform="translate(-163.79 -165.32)"/><path class="stroke-2" d="M1620.37,419.15s1.29,6.14,4.45,6.14,2.77-1.09,5.44-1.29,5.44,1.78,5.44,1.78" transform="translate(-163.79 -165.32)"/><path class="stroke" d="M1502.76,380.65A77.85,77.85,0,0,0,1498,339.9c-8.71-21.63-24.41-41.88-17.61-64.06" transform="translate(-163.79 -165.32)"/><path class="stroke" d="M1530.41,379.59c.79.4,27.08-43.19-12.57-89.7" transform="translate(-163.79 -165.32)"/><path class="stroke" d="M1543,214s17.76-24.41,56.26-17,78.07,30.33,102.6,14,17.4-41.14,17.4-41.14c-12.39,29-40.09,31.91-63.74,32.93s-60-28.45-93.45-24.23-46.57,24.23-46.57,24.23" transform="translate(-163.79 -165.32)"/><path class="stroke" d="M1627.73,191.68s52.74,11.08,74.11-21.89" transform="translate(-163.79 -165.32)"/><path class="stroke" d="M1652.89,368.67s-.9-31.67,35-58.57,62-26.9,63.56-48.79-9.52-31.45-8.71-32.44" transform="translate(-163.79 -165.32)"/><path class="stroke" d="M1663.82,374.74s5.53-41.13,75.16-62.38,21.32-68.62,4-82.52" transform="translate(-163.79 -165.32)"/><path class="stroke-2" d="M1659,396.31s6.88-57.73,44.33-79.62,94.55-39.95,39.37-88.28" transform="translate(-163.79 -165.32)"/><path class="stroke-2" d="M1480.78,278.71s77.54,40.62,26.64,105.76" transform="translate(-163.79 -165.32)"/><path class="stroke" d="M1595,394.1s-6.32,1.15-8.43-1.6-3.56-4.49-8.18-5.14-9.49,1.73-15.56,1.2-8.31-8.31-16-9.49-6.86,4.74-11.21,4.48-5.54-4-11.61-4-13,9.23-17.67,6.46-1.71-6.06-10.68-7.78-14.9-9-25.45-9-12.39,5.14-16.09,5.14-17.93-6.07-26,23.47,26.77,50.11,49.19,41" transform="translate(-163.79 -165.32)"/><path class="stroke" d="M1464.16,441.08s7.46-7,14.77-7,5.81,6.72,13.65,7,12.79-13.92,25.45-13.92,9.23,10.13,22.16,10.13,10.78-7.45,16.32-7.45,2.67,6,12.26,6,12.83-7.37,26.2-7.37" transform="translate(-163.79 -165.32)"/><path class="stroke-2" d="M1438.85,387.36s5.5-.74,8.07-2.33,3.46-3.06,6.93-2.47,5.2,6.13,10.31,5.44,3-6.79,9.76-5.57S1495,398.29,1495,398.29" transform="translate(-163.79 -165.32)"/><path class="stroke-2" d="M1446.63,400.56s1.68,6,4.64,5.93,3.86-5,7.13-4.54,13.74,17.2,27.19,17.2" transform="translate(-163.79 -165.32)"/><path class="stroke-2" d="M1532.87,400c1.38.1,12.46-6,15.82-6.43s8.8,11.08,16.32,10.19,8.7-4.06,16.32,0" transform="translate(-163.79 -165.32)"/><path class="stroke-2" d="M1535.93,409.76s11.18,6.72-1.78,11" transform="translate(-163.79 -165.32)"/><path class="stroke-2" d="M1541,405.21s7.81-1.39,8.11,5.24-5.34,12.17,4.75,13.75,10.58-6.53,15.52-6.13,5.54,5,9.2,4.4,9.3-12.71,9.3-12.71" transform="translate(-163.79 -165.32)"/><path class="stroke-2" d="M1480.78,371.8s-1.85-10.54-20.83-8.16-47.74,12.19-43.26,63.52,78.15,26.76,65.58,7.6" transform="translate(-163.79 -165.32)"/><circle class="stroke-2" cx="1176.36" cy="247.99" r="8.11"/><circle class="stroke-2" cx="1143.55" cy="247.05" r="7.17"/><circle class="stroke-2" cx="1173.5" cy="248.72" r="1.26"/><circle class="stroke-2" cx="1141.7" cy="248.72" r="1.26"/><path class="stroke-2" d="M1346.6,418.21s2.58,3.58,6.27,2.79,8-4.09,8-4.09a11.89,11.89,0,0,1,0-4.53c.53-1.8,4.75-3.31,4.75-3.91s-3.57.4-4.16-1.71.52-3.53,0-3.83-3.82,1.19-5.37,0,0-6.72,0-6.72-4.71.53-5.37,0a8,8,0,0,1-1.32-2.64s-3.2,2.14-5.37,1.95a3.41,3.41,0,0,1-2.87-1.95s-2.28,4.22-4.45,5.41-6.73-1.39-7.12-1.29,4.12,7,2.4,7.52-4.18-.1-4.58,0-.62,7.57,4.61,7.57" transform="translate(-163.79 -165.32)"/><path class="stroke-2" d="M1301.56,416.62s-4.08.75-4.37.65.59-2.67-.4-2.76-2-1.78-2.47-2.58,1.78-1.78,1.68-2.86a54.34,54.34,0,0,0-2.27-6.33s2.67,1.48,2.86.69-1.28-5.05-.29-5.84,3.75,2.28,4.55,2.18.71-4.35.71-4.35,2.25,3.06,3.24,2.87,4.06-4.78,4.45-4.72,1,3.23,1.49,3.13,2.59-1.58,3.77-1.58,1.47,5,2.06,5.14,2.77.1,3.17.4-.5,4.25,0,4.55,1.28,2.39,2,2.13-4.84,5.88-4,6-2.78,3-3.62,1.3" transform="translate(-163.79 -165.32)"/><path class="stroke" d="M1366.58,407.34s13.85-23.66,29.28-26,10.81,3.43,19.78,4.09-6.2,8.3-7.52,16.08,2.77,15.43-8.31,19.52-12.26,10.15-23.86,2.24" transform="translate(-163.79 -165.32)"/><path class="stroke-2" d="M1398.23,389.48s-15.82,4.49-15.56,15.17,11.08,1.84,4.88-.73" transform="translate(-163.79 -165.32)"/><path class="stroke" d="M1379.4,391s-3.29-2.69-4.18-2.79-4.15,5.37-4.15,5.37" transform="translate(-163.79 -165.32)"/><path class="stroke" d="M1373.8,389.48s-1.15-7.51-2.73-8.4-6.43.59-9,0-4.65-7-7-7.52S1341.2,386,1341.2,386" transform="translate(-163.79 -165.32)"/><path class="stroke" d="M1347.43,379.4s-3.79-8.51-7.29-8.51-5.4,5.14-8.11,4.75-5.47-4.55-7-4.75-8.49,14.24-10.47,14.44" transform="translate(-163.79 -165.32)"/><path class="stroke" d="M1317.71,381.52s-1.83-3.61-5.49-3.41-15.33,8.7-16.62,12,1.56,7.48,1.56,7.48" transform="translate(-163.79 -165.32)"/><path class="stroke" d="M1303.78,439.78s-13.94-10.31-1.48-21.52" transform="translate(-163.79 -165.32)"/><path class="stroke-2" d="M1364.57,441.6s-9.39,1.42-10,2.94-7.21,4.28-8.06,3.82-7.5.79-8.69.33-8.24-4.28-10.81-3.95-7.45,3.36-9.17,3.36-4.81-4.09-7.19-2.44-2.11,6-2.3,6.33-8.23-5.8-8.14-7.78,5.29-5.94,7.17-6.2,2,4.09,3.74,4,4.35-3.45,4.88-4,4.21,4.23,4.74,4.1,2.9-3.56,2.9-3.56,2.47,4.48,3.68,3.82,1.85-4.71,3.7-4.4,2.51,4,4.1,3.61,2.77-3,4.48-3.63,4.82,5.48,7.88,4.69,6.76-8.18,6.76-8.18.92,5.93,4.74,4.88a18,18,0,0,0,6.73-3.82,15.25,15.25,0,0,1-2.51,8.83c-2.9,4.48-16,11.42-16.69,14.48s1.4,8.73-1.37,9.52-9.5-.79-13.58,0-12.93,4.35-15.7-1.52c-.64-1.37-3.06,5.21-3.06,5.21a13.15,13.15,0,0,0,1.48,2.18c.26.06-.2,4.75-.59,5.21s3.69,2.5,4.55,2.5,1,6.07,1.84,6.33,3.5-4.81,4.29-4.81,4.15,6,4.81,5.93,5.61-6.33,6.73-6.52,8.3,5.2,9.82,4.61.46-7.25,1.19-7.32,5.14,1.52,5.4,1.39.7-4.52,3.47-5.51,8.9,3,11.27,1.43-2-9.24-1.88-10.33,2.08-1.38,3.66-2-1.48-5.14-.69-5.83,5.44.69,5.83,0-1.38-2.18,0-3.27,3.86-1,5.47-1.08,6-2.77,11-10.19,0-19.18,0-19.18" transform="translate(-163.79 -165.32)"/><path class="stroke-2" d="M1332.54,439.18s7.41-4.86,7.6-7.63-8.39-7.65-9.17-8.57-5,1.58-5.79.66-4-4.88-4.75-4.88-7.39,5.36-9.1,6.83-10.23-.8-10.92,3.37,3.32,9.64,5.62,9.53" transform="translate(-163.79 -165.32)"/><path class="stroke-2" d="M1325.7,437s3.3-5.67-.66-7-4,4.22-3.27,5.8" transform="translate(-163.79 -165.32)"/><path class="stroke-2" d="M1314.51,437s3-7.13-.67-7.19-5.41,2.18-4,4.55" transform="translate(-163.79 -165.32)"/><path class="stroke-2" d="M1328.34,417.8s-4.65-7.65-10.19-1.81" transform="translate(-163.79 -165.32)"/><path class="stroke-2" d="M1329.11,411.64s-4.82-6.71-9.77-1" transform="translate(-163.79 -165.32)"/><path class="stroke-2" d="M1332.15,475.5s5.29-8.71,10.23,1" transform="translate(-163.79 -165.32)"/><path class="stroke-2" d="M1328.14,478.1s-1.66-8.74-7.9-1.6" transform="translate(-163.79 -165.32)"/><path class="stroke-2" d="M1311.43,453.27c0-.35,3.06-3.36,5.83-3.46a9.89,9.89,0,0,1,4.51.79s.89,4.55-.37,5.54S1311.53,458.62,1311.43,453.27Z" transform="translate(-163.79 -165.32)"/><path class="stroke-2" d="M1322,450.29s1.47-1.17,5.31-1.17,4.14,1.88,4,3.56-3.17,5.1-6.23,4.43S1321.6,457.79,1322,450.29Z" transform="translate(-163.79 -165.32)"/><path class="stroke-2" d="M1329.7,455.42a32.63,32.63,0,0,0,7.15.53c2.67-.3,3.29-1.59,3.29-1.59l-.92-5.24s-8.21-.11-8.6.69S1331.53,454.12,1329.7,455.42Z" transform="translate(-163.79 -165.32)"/><path class="stroke-2" d="M1348.25,448.09s3.41,7.36-.39,8.8-8.52-1.74-8.52-1.74.57-4.45-.12-6C1341.59,449.12,1348.25,448.09,1348.25,448.09Z" transform="translate(-163.79 -165.32)"/><path class="stroke-2" d="M1308.3,452s1.91-2.51,3.13,1.28" transform="translate(-163.79 -165.32)"/><path class="stroke-2" d="M1341.79,466.63s1.39-1.39,1.19-5.34-2.18-3.81-2.18-3.81-1.28,2.32-2.77,2.22a3.55,3.55,0,0,0-3.76,3.46c-.29,2.68,1.09,3.47,1.09,3.47S1341.2,467.63,1341.79,466.63Z" transform="translate(-163.79 -165.32)"/><path class="stroke-2" d="M1317.26,460c.5,0-1.73,2.5-1.59,4.66s2.48,3.55,2.48,3.55,5.44.59,5.1-2S1316.77,460,1317.26,460Z" transform="translate(-163.79 -165.32)"/><path class="stroke-2" d="M1320.24,461.68s.91-2.77,3-2.62a14.5,14.5,0,0,1,4,.94,7.87,7.87,0,0,1,1.07,4.13c-.1,2.3-4,4-5.09,2.1A45.76,45.76,0,0,0,1320.24,461.68Z" transform="translate(-163.79 -165.32)"/><path class="stroke-2" d="M1336.39,460a16.33,16.33,0,0,0-5.07-1.18,12.08,12.08,0,0,0-4,1.18s1.36,4.19.87,4.94,5.83,1.36,6.33.43S1332.77,463.16,1336.39,460Z" transform="translate(-163.79 -165.32)"/><path class="stroke-2" d="M1343,460s2.2-2.06,3.46-1.18" transform="translate(-163.79 -165.32)"/><path class="stroke-2" d="M1318.15,457s2,2,0,3.74" transform="translate(-163.79 -165.32)"/><path class="stroke-2" d="M1342.86,372.32s-1.33-7.89,1.83-11.85,5.8-8.57,5-12.13-1.43-6.07.15-9.63,5.79-4.74,5.66-9.89.13-8.7-2.25-9.62-2,6.06-6.8,6.33-10.52,6.72-10.43,10-5.18,15.16-5.84,15.16-8-11.07-8.79-11.07,1.23,12.79,0,15.95.31,4,1.85,6.86-2.44,7.87-2.3,13.76" transform="translate(-163.79 -165.32)"/><path class="stroke-2" d="M1407.63,381.89s9.68-23.9,48.67-17.72" transform="translate(-163.79 -165.32)"/><path class="stroke-2" d="M1474.55,451.24s3.4,10.11-8.44,19.08-29.24,6.18-29.24,6.18" transform="translate(-163.79 -165.32)"/><path class="stroke-2" d="M1471.29,465.22s2.49,13.57-16.77,18.57S1416.35,486.42,1405,467s-12.31-31.49-12.31-31.49" transform="translate(-163.79 -165.32)"/><path class="stroke-2" d="M1470.23,472.39s16.15,12.93,15.17,23.31-3.86,18.2-21.47,31.16-14.63,28-5,33.82,26.9,14.14,15.53,36.4-29.87,27.49-40.65,17.9-12.56-21.66-19-25.12-30.79-1-38.18-12.07c0,0-6.19-5.67-5.14-20s-8.31-19.26-8.31-19.26" transform="translate(-163.79 -165.32)"/><path class="stroke-2" d="M1321.2,487.31s-3.8,19.93,4.9,31.14,14.64,20.44,35.74,18.73c0,0,7.25-2.38,15.69-15s16-21.49,43.38-22.28,47.87,2.24,54.09-9.37c0,0,1.43,12.93-29.43,12.93s-49.71-2-60.26,14.77-14.47,22.2-19.76,22.11" transform="translate(-163.79 -165.32)"/><path class="stroke-2" d="M1367.37,503.84c.53,1.16,6.47,10.42,2.25,17.66s-13.19,9.21-12.8,10.93-11.73,5.8-15-1.72-6.45-4-5.4-12.39" transform="translate(-163.79 -165.32)"/><path class="stroke-2" d="M1348.91,515.5c1.06,0,7.39,3.35,6.07,7.3s-4.35,5.15-6.07,2.9S1347.86,515.5,1348.91,515.5Z" transform="translate(-163.79 -165.32)"/><path class="stroke-2" d="M1356.23,483s15,1.23,6.92,14.58" transform="translate(-163.79 -165.32)"/><path class="stroke-2" d="M1365.66,480.48s12.33,2.71,6.59,13.61" transform="translate(-163.79 -165.32)"/><path class="stroke-2" d="M1379,468.27s-5.34,14.09,17,14.73" transform="translate(-163.79 -165.32)"/><path class="stroke-2" d="M1383.53,460.79s6.92,1.57,6.92,6.27.59,8.81,5.54,8.84,6.72-2.2,6.72-2.2" transform="translate(-163.79 -165.32)"/><path class="stroke-2" d="M1382.67,467.28s3.63,8.59,13.32,8.62" transform="translate(-163.79 -165.32)"/><path class="stroke-2" d="M1405.29,479.5c1.58-.41,10.93,9,10.93,9" transform="translate(-163.79 -165.32)"/><path class="stroke-2" d="M1474.14,475.9s6.11,18.5-31.27,14.6" transform="translate(-163.79 -165.32)"/><path class="stroke" d="M1363.15,537.7s5.81,18.6,0,33.76S1376,593,1376,593s7.52,4,15,1.91,14.64-11,23.74-5.07-2.37,24.13,1.58,31.84,37.59,33,63.5-4.94-11.22-56.79-22.13-57.42c-6.46-6.27-6.15-8-6-13.36,7-22.32,38.23-16.65,44.36-40.58s-24.68-34.82-24.68-34.82" transform="translate(-163.79 -165.32)"/><path class="stroke-2" d="M1385,595.48s27.3,2.22,30.46,21.74" transform="translate(-163.79 -165.32)"/><path class="stroke-2" d="M1300.16,444.21s-10.93,13-5.05,39.78,20.62,59,56.4,53.06" transform="translate(-163.79 -165.32)"/><path class="stroke-2" d="M1311.43,455.15s-9.36,8.89-7.65,30.27S1324.19,527,1324.19,527" transform="translate(-163.79 -165.32)"/><path class="stroke-2" d="M1434.76,605.22c.53,0,19-2.11,21.1-4.62" transform="translate(-163.79 -165.32)"/><path class="stroke-2" d="M1445.31,603.75S1437,584,1433.44,582.93" transform="translate(-163.79 -165.32)"/><path class="stroke-2" d="M1442.42,597.29s1.57-11.19,1.31-13" transform="translate(-163.79 -165.32)"/><path class="stroke-2" d="M1443.36,599.33s9.07-.84,12.5-9.28" transform="translate(-163.79 -165.32)"/><path class="stroke-2" d="M1438.8,590.05s-2.2,14.38-12.09,12.14" transform="translate(-163.79 -165.32)"/><path class="stroke-2" d="M1433.62,600.6a5.53,5.53,0,0,1-.86,6.86" transform="translate(-163.79 -165.32)"/><path class="stroke-2" d="M1435.87,598s-6.08-6.86-11.57-7.92" transform="translate(-163.79 -165.32)"/><path class="stroke" d="M1302.61,587.19s-9.64,3.72-14.92,10.18,1.88,16.55.3,19.85-8.85,6.73-7.2,14.11,9.84,15.56,7.73,22.42-2.94,15.82,3.54,21.89,12.15,11.34,12.15,15.29" transform="translate(-163.79 -165.32)"/><path class="stroke" d="M1303.15,696.87s1.85,22.68-9.89,25.45-14.37-13.45-26.63-10.68-20.05,13.18-26.38,12.79-8.57-3.69-8.57-3.69-6.2,18.19,6.73,18.59,7.91,5.41,10.94,5.67,11.21,2.24,13.32,5.27,4.88,9.37,16.48,5.68,21.5-3.57,25.06-1.32,21.1,13.71,30.46,4.22-8-29.81-7.78-38.64,5.8-17.28,5.8-17.28" transform="translate(-163.79 -165.32)"/><path class="stroke" d="M1334.77,696.18s.69-3.66,2.67-4.26,5.93-6,5.34-8.9-4.15-8.21-2.18-10.58,7.32-6.92,6.83-15.33-10.91-9.69-10-14.18,1.85-13.84-2-18.06-14.24-1.72-14.5-11.21" transform="translate(-163.79 -165.32)"/><path class="stroke-2" d="M1328.67,711.35s11.61-1.27,4-9.93-24.53-8.64-31.32-4.22,1.53,9.28,1.53,9.28" transform="translate(-163.79 -165.32)"/><path class="stroke-2" d="M1327.64,714.84s13.89,2.47,13.23-7.75-16.16-14.84-24.66-16.16-18.46.6-21.5,7.59,7.6,11.63,7.6,11.63" transform="translate(-163.79 -165.32)"/><path class="stroke-2" d="M1304.87,600.47s2.77,4.62,0,8.31-8.31,1.71-8.31,17.54" transform="translate(-163.79 -165.32)"/><path class="stroke-2" d="M1306.1,622.89s-2.15,7.78-8,11.6-4.61,8.18-2.63,12.4,4.74,8,4.48,14.11-1.32,11,3.43,16.35,7.91,11.49,7.91,13.19" transform="translate(-163.79 -165.32)"/><path class="stroke-2" d="M1311.33,658.23s2.34-5,5.66-1.51.67,6.79,4,8.24,5.8-4.74,5.8-4.74" transform="translate(-163.79 -165.32)"/><path class="stroke-2" d="M1312.75,673.79s1.32,3,4.24,2.64,1.46-5.11,7.13-1.3,2.64,12.77,2.64,12.77" transform="translate(-163.79 -165.32)"/><path class="stroke-2" d="M1346.8,634.23c5.28-50.11-15.59-54.66-18.06-54.66s-4.45,3-6.3,3.67-5.08-3.77-10.22-4.16-11.85,8.34-11.85,8.34,19.9-4.88,31.78,16.22S1346.8,634.23,1346.8,634.23Z" transform="translate(-163.79 -165.32)"/><path class="stroke-2" d="M1334.74,608.31s-1.86,9.91.72,16.56" transform="translate(-163.79 -165.32)"/><path class="stroke-2" d="M1346.8,634.23s2,17.67,10.42,28,27.31,22.51,27,22.81-11.3-3.91-21.34-10.53a51.55,51.55,0,0,1-15.47-17" transform="translate(-163.79 -165.32)"/><path class="stroke-2" d="M1332.15,580.1s13.07-1.08,21,12.73,11.95,24.79,12.4,33.88c1.18,23.87,36.38,40.9,36.86,40.8" transform="translate(-163.79 -165.32)"/><path class="stroke-2" d="M1337.67,580.7s10.68-3.7,17.49,3,31.73,46.28,40.7,49.71" transform="translate(-163.79 -165.32)"/><path class="stroke-2" d="M1349,580.25s7.47,1.1,13.08-3.51" transform="translate(-163.79 -165.32)"/><path class="stroke-2" d="M1490.16,482.94s19.57,16.72,16.2,29.38-21.57,11.8-27.1,35.6,21.51,20.09,8.63,51.78" transform="translate(-163.79 -165.32)"/><path class="stroke-2" d="M1438.17,663.79s10.17,13.43,15.18,27.67,35.61,49.06,71.74,35.08,27.56-42.07,73.84-43,56.71,4.48,57.76,10.55,0,19.25,0,19.25c-.53-15.56-33.23-14.7-73.58-10.54s-30.86,35-77.93,34.61-65.28-46.29-67.26-55.19-16.61-21.9-16.61-21.9" transform="translate(-163.79 -165.32)"/><path class="stroke-2" d="M1407.67,604s4.54,11.74,1,18.07-9.56,17.41-6.26,25.52,10.36,6.19,10.36,6.19" transform="translate(-163.79 -165.32)"/><path class="stroke-2" d="M1415.59,619s-2,12.84-3.48,16.8-4.85,22.35,11.27,25,14.71-3.26,10.23-12-16.74-14.62-12.74-21.95" transform="translate(-163.79 -165.32)"/><path class="stroke-2" d="M1416.46,623.38s1.58,10.78,0,13.75-2.65,11.56,6.63,10.58,2.22-6.92,1.21-10.13" transform="translate(-163.79 -165.32)"/><path class="stroke-2" d="M1410.35,606.56a23.36,23.36,0,0,1-.65,22c-6.52,11.61-4.16,21.53,1.84,22" transform="translate(-163.79 -165.32)"/><path class="stroke-2" d="M1422.91,628.51s-.22,4.27,14.72,12.58,8.18,29-4,19.9" transform="translate(-163.79 -165.32)"/><path class="stroke-2" d="M1455,713.45c-9.68-12.42-22-22-33.7-30.43s-26.51,5.34-37.06,2c0,0,9.89-1.72,15.63-6.74s15.89-11.34,23.54-4.35,8.09,15.6,21.09,27.93" transform="translate(-163.79 -165.32)"/><path class="stroke-2" d="M1294.21,403.92s-34.8-9.1-35-37.58" transform="translate(-163.79 -165.32)"/><path class="stroke-2" d="M1295.27,401.35s-40.28-8.87-33.77-53.69" transform="translate(-163.79 -165.32)"/><path class="stroke-2" d="M1296,399.64s-53.13-14.61-24-80.53" transform="translate(-163.79 -165.32)"/><path class="stroke-2" d="M1296.3,397.59s-57.76-22.15-14-85" transform="translate(-163.79 -165.32)"/><path class="stroke-2" d="M1295.27,393.57s-54.56-24.06-1.54-91.52" transform="translate(-163.79 -165.32)"/><path class="stroke-2" d="M1295.6,390.08s-54.29-23.15,6.83-93.56" transform="translate(-163.79 -165.32)"/><path class="stroke-2" d="M1297.12,386.71s-52.25-33.42,13.42-93.75" transform="translate(-163.79 -165.32)"/><path class="stroke-2" d="M1301,384.47s-49-32.77,6.75-84.59" transform="translate(-163.79 -165.32)"/><path class="stroke-2" d="M1304.23,381.52s-51.35-36.15,19-92.72" transform="translate(-163.79 -165.32)"/><path class="stroke-2" d="M1307.33,380.12S1251,340.23,1341.2,280.3" transform="translate(-163.79 -165.32)"/><path class="stroke-2" d="M1309.86,378.82s-48.18-40.77,23.62-90" transform="translate(-163.79 -165.32)"/><path class="stroke-2" d="M1312.22,378.11s-29-39.26-4.47-63.2,35-27.69,35-27.69" transform="translate(-163.79 -165.32)"/><path class="stroke-2" d="M1315.58,378.11s-17.23-30.57-17.46-34.81" transform="translate(-163.79 -165.32)"/><path class="stroke-2" d="M1319.34,377.39s-21.46-36.8-16.91-46,36.2-45.38,49.45-46.17" transform="translate(-163.79 -165.32)"/><path class="stroke-2" d="M1321.4,370.89s-24.71-26.51-10.86-43.91,33.62-39.17,41.34-38.18" transform="translate(-163.79 -165.32)"/><path class="stroke-2" d="M1323.21,366.34s-20.39-22.25-12.67-33.68,39.56-40.89,39.56-40.89" transform="translate(-163.79 -165.32)"/><path class="stroke-2" d="M1321.4,355.59s-19.89-14.57,1-32.37,30.43-31.45,30.43-31.45" transform="translate(-163.79 -165.32)"/><path class="stroke-2" d="M1323.25,339.84s-9.55-14,36.15-50" transform="translate(-163.79 -165.32)"/><path class="stroke-2" d="M1321.4,347.81s-8.91-10.5-2.06-21.68" transform="translate(-163.79 -165.32)"/><path class="stroke-2" d="M1326.84,345c.12-.6-2.54-11.54,4.13-21.3s34.69-33.89,34.69-33.89" transform="translate(-163.79 -165.32)"/><path class="stroke-2" d="M1333.48,344.13s-5.73-20.91,10.29-31.59,31.46-28.88,31.46-28.88" transform="translate(-163.79 -165.32)"/><path class="stroke-2" d="M1338.55,327.77s3.64-17.43,14.32-22.07" transform="translate(-163.79 -165.32)"/><path class="stroke-2" d="M1354.91,321.08s13-25.55,27.76-29.31" transform="translate(-163.79 -165.32)"/><path class="stroke-2" d="M1344,326.13s7.66-21.5,27-33.17" transform="translate(-163.79 -165.32)"/><path class="stroke-2" d="M1351.88,319.76s5.13-15.33,16.91-22.45" transform="translate(-163.79 -165.32)"/><path class="stroke-2" d="M1355.51,324.8s11.4-22.35,20.7-24.92" transform="translate(-163.79 -165.32)"/><path class="stroke-2" d="M1354.91,332s15.69-29.37,43.32-34.12" transform="translate(-163.79 -165.32)"/><path class="stroke-2" d="M1349.66,351.36s13.49-42.58,69.67-54.05" transform="translate(-163.79 -165.32)"/><path class="stroke-2" d="M1344.44,373.55s7.36-53.1,71.78-71.5" transform="translate(-163.79 -165.32)"/><path class="stroke-2" d="M1347.43,377.39s6.62-63.86,87.13-77.51" transform="translate(-163.79 -165.32)"/><path class="stroke-2" d="M1353.86,372.52s1.78-41.5,65.47-55.78" transform="translate(-163.79 -165.32)"/><path class="stroke-2" d="M1350.1,376.84s1-53.25,78.92-71.14" transform="translate(-163.79 -165.32)"/><path class="stroke-2" d="M1356.47,374.51s6.22-34.67,41.76-46.74" transform="translate(-163.79 -165.32)"/><path class="stroke-2" d="M1362.07,381.08s8-39.46,64-52" transform="translate(-163.79 -165.32)"/><path class="stroke-2" d="M1359.4,377.39s7.91-36.8,52-47.56" transform="translate(-163.79 -165.32)"/><path class="stroke-2" d="M1368.79,380.8s8.41-36.67,59.24-45.64" transform="translate(-163.79 -165.32)"/><path class="stroke-2" d="M1371.94,382.27S1382,350.91,1428,345" transform="translate(-163.79 -165.32)"/><path class="stroke-2" d="M1382.67,387.83s1.2-20.5,25-27.13" transform="translate(-163.79 -165.32)"/><path class="stroke-2" d="M1387.63,384.47s-2.52-21.79,56.42-26.49" transform="translate(-163.79 -165.32)"/><path class="stroke-2" d="M1377.35,389.48s1-34.61,53.25-40.55" transform="translate(-163.79 -165.32)"/><path class="stroke-2" d="M1394.76,381.52s-2.13-7.47,8-10.63" transform="translate(-163.79 -165.32)"/><path class="stroke-2" d="M1398.64,380.12s.12-6.41,9-7.6" transform="translate(-163.79 -165.32)"/><path class="stroke" d="M1578.11,433.36s12.91,20.49,4.74,32.48-72.53,46.67-84.4,71.93-10,63,15.3,73.25,49.32,10.55,73.84-26.77,56.13-89,56.42-112.34" transform="translate(-163.79 -165.32)"/><path class="stroke" d="M1612.45,435.54s12.73,22,0,42.56-75.18,17.22-92,46.15.33,54.22,38.08,50.38S1635,485,1630.81,465.84" transform="translate(-163.79 -165.32)"/><path class="stroke-2" d="M1506.07,505.28s3.23,10.42,10,11.8" transform="translate(-163.79 -165.32)"/><path class="stroke-2" d="M1510.12,539.82" transform="translate(-163.79 -165.32)"/><path class="stroke-2" d="M1583.9,575c-91.78,51.82-73.78-35.19-73.78-35.19s-23.71,35,7.12,54.87S1583.9,575,1583.9,575Z" transform="translate(-163.79 -165.32)"/><path class="stroke-2" d="M1594.19,435.54s17.53,19.15,3.32,36.4-53.46,21.43-67.49,41.87" transform="translate(-163.79 -165.32)"/><path class="stroke-2" d="M1469.47,628.51s2.08-.92,2.87,22,5.34,42.81,26.11,53.73a101,101,0,0,0,42.13,10.91c-50.28,13.06-77.93-33.07-77.93-46.12s-3.54-34.17-3.54-34.17" transform="translate(-163.79 -165.32)"/><path class="stroke" d="M1528,615.6s-18.76,21.53-23.77,28.39-11.39,41.46,7.39,57.23,37.28,9.32,37.28,9.32" transform="translate(-163.79 -165.32)"/><path class="stroke-2" d="M1532.88,616.47s-17.68,22.64-15.7,40.44,9.49,27.3,23.4,31.52,30.13-1.19,34.49-12,5-9.36,5-9.36,5.77,14.66,4.93,17.81" transform="translate(-163.79 -165.32)"/><path class="stroke" d="M1579.49,667.33s-4.89-21.69,11.33-34" transform="translate(-163.79 -165.32)"/><path class="stroke" d="M1595.77,626.65s24.61-19.78,35.35,11.67,26.6,21.86,32,29.19,2.78,13.14,2.78,13.14,17.67.76,17.94-20.32,5.54-29.53,1.84-35.07-38.56-25.73-41.69-34.49,5.56-22.21-5.78-25.64-33,4.22-36.39,12.66-3.76,28-19,19.5" transform="translate(-163.79 -165.32)"/><path class="stroke-2" d="M1588.32,597.7s-6.53-5.66-6.53,2.58,6.07,23.53,13.58,27.62,7-2.22,6.85-5.07" transform="translate(-163.79 -165.32)"/><path class="stroke-2" d="M1606.58,621.27s3.39,10.32-4.3,13-15.74-4-21.81-19.65-2.19-17.89-2.19-17.89" transform="translate(-163.79 -165.32)"/><path class="stroke-2" d="M1583.9,589.59s9.19-.31,8.82,9" transform="translate(-163.79 -165.32)"/><path class="stroke-2" d="M1530.69,645.89s12.87,28.82-6.72,18.93" transform="translate(-163.79 -165.32)"/><path class="stroke-2" d="M1539.23,629.24a9.08,9.08,0,0,0,8.87-2c4-3.76,13.85-2.69,14,2.41s-1.18,8.27-5.14,8.27" transform="translate(-163.79 -165.32)"/><path class="stroke-2" d="M1539.23,674.12s7.93-4.55,11.47-4.55,8.08-5.2,7.88-13.18,9.42-13.13,14-13.72a8.06,8.06,0,0,0,6.21-4.75" transform="translate(-163.79 -165.32)"/><path class="stroke-2" d="M1567.7,611.22s-1.6,10.64-3.58,11.25,1,7.3,12.94,0" transform="translate(-163.79 -165.32)"/><path class="stroke-2" d="M1478.51,619.56s5.9,1.55,7.87,5.31,14.25,12.7,18.2,4.37-17.21-18.86-18-22.59" transform="translate(-163.79 -165.32)"/><path class="stroke-2" d="M1471,627.21s8.31,1.21,9.9,5.47,6.42,21,21.5,15.11" transform="translate(-163.79 -165.32)"/><path class="stroke-2" d="M1488.14,598.57s1.07,6.58,8.74,6.65,22.67,7.19,22.31,20.64" transform="translate(-163.79 -165.32)"/><path class="stroke-2" d="M1529.4,570.35s3.86-14.6,8.61-17.16,24.79-26.14,30.86-37.69,32.5-28.81,44.21,5.66" transform="translate(-163.79 -165.32)"/><path class="stroke-2" d="M1531.82,571.48a67.07,67.07,0,0,0,10.84-14.26c4-7.65,5.37-11.93,10.38-10.71s5.3,13.2,14.66,13.35,6.64-57.82,42.28-46.05" transform="translate(-163.79 -165.32)"/><path class="stroke-2" d="M1521.66,522.4s15.81,11,13.18,34.27" transform="translate(-163.79 -165.32)"/><path class="stroke-2" d="M1612.53,544.61s1.39,14.93-2.35,25.44" transform="translate(-163.79 -165.32)"/><path class="stroke" d="M704.68,711.59a289.49,289.49,0,0,1-73.89,59.68" transform="translate(-163.79 -165.32)"/><path class="stroke" d="M769.57,589.6a290,290,0,0,1-54.63,109.83c1.32,6.23,5.52,9.31,12,9.94a303,303,0,0,0,59.94-115.68" transform="translate(-163.79 -165.32)"/><path class="stroke" d="M768.77,443.13A293.5,293.5,0,0,1,773.64,571c4.72,4.15,10.82,4.82,17.65,3.6a306.41,306.41,0,0,0-3.73-135.43" transform="translate(-163.79 -165.32)"/><path class="stroke" d="M700.08,319.18a291,291,0,0,1,63.46,106.45c7.63.58,14.13-.52,18.86-4.26a303.89,303.89,0,0,0-69.79-116.59" transform="translate(-163.79 -165.32)"/><path class="stroke" d="M192.75,561.18a299.93,299.93,0,0,0,15.63,60.09" transform="translate(-163.79 -165.32)"/><path class="stroke" d="M207,412.78a300.92,300.92,0,0,0-17.65,102.3q0,14.16,1.27,28a7.1,7.1,0,0,0,6.75-.61q-1-12.15-1-24.56a290.5,290.5,0,0,1,18.55-102.48" transform="translate(-163.79 -165.32)"/><path class="stroke" d="M287.57,291.32a302.72,302.72,0,0,0-73.35,103.07c1.83,2.08,4.57,3,8.19,2.87a289.55,289.55,0,0,1,72.24-97.49" transform="translate(-163.79 -165.32)"/><path class="stroke" d="M410.09,222.68a299.65,299.65,0,0,0-107.3,55.54c.88,3.31,3.58,6.18,7.31,8.81a289.84,289.84,0,0,1,102.76-50.57" transform="translate(-163.79 -165.32)"/><path class="stroke" d="M566.54,220.08a306.68,306.68,0,0,0-134.7-2.7c-1.52,5.55-.84,10.38,2.84,14.21a293.78,293.78,0,0,1,125.81,4.49" transform="translate(-163.79 -165.32)"/><path class="stroke" d="M579.73,241.78A291,291,0,0,1,686.9,306c6.35-4.17,10.18-9.21,11.39-15.15a303.57,303.57,0,0,0-112-65.11C581.19,229.57,579.51,235.2,579.73,241.78Z" transform="translate(-163.79 -165.32)"/><path class="stroke" d="M214.61,619.72a287.8,287.8,0,0,1-15.19-59" transform="translate(-163.79 -165.32)"/><path class="stroke-2" d="M487.39,809" transform="translate(-163.79 -165.32)"/><path class="stroke-2" d="M493.21,819" transform="translate(-163.79 -165.32)"/><path class="stroke" d="M716.53,721.21A302.51,302.51,0,0,1,664,766.47" transform="translate(-163.79 -165.32)"/><path class="stroke-2" d="M570.67,680.78a17.88,17.88,0,0,0,7,.92c3.3-.39,8.44-3.69,12.4,2.64s.26,10.42,3.69,13.32,16.88,7,18.33,22-7.78,21-2.64,28.35,5.67,4.75,8.7,12.27-1.43,8.56,4.24,14.1" transform="translate(-163.79 -165.32)"/><path class="stroke-2" d="M626.45,781.79s7.12,2.24,10.16-3.3S643.07,766.63,646,765s5.14-.92,7.25,0,0,2.91,0,2.91" transform="translate(-163.79 -165.32)"/><path class="stroke-2" d="M645.18,776.78s12-15.16,14.9-13.45,4.35,3.69,3.43,5.14" transform="translate(-163.79 -165.32)"/><path class="stroke-2" d="M654.16,776.78s10.14-10,12.25-8.18,4.48,5.81,3.69,6.6" transform="translate(-163.79 -165.32)"/><path class="stroke-2" d="M672.21,781.53c.53-.53.66-2.9-1.32-4.75s-9.63,5.46-9.63,5.46-9.13-.61-11.2-2.54-10.35-3-16.75,1.85" transform="translate(-163.79 -165.32)"/><path class="stroke-2" d="M666.91,788.38s3.86-8.46,5.64-6.14.06,8.91-1,9-4.09,6.72-3.3,9.23-4.35,9.62-8.17,9.62-15.17.27-19.12,6.86-15.3,17.14-24.27,16-13.58-2.51-14.24-8.18,1.06-8.44-1.32-13.32-4.09-7.72-.92-16.82" transform="translate(-163.79 -165.32)"/><path class="stroke-2" d="M601.4,787.36S585.18,766,579.94,765s-9-5.64-10.19-9.89-15.53-13.45-15.53-13.45,2.34-16.58-1.75-28.58c0,0-8.83-25.85,3.83-32.57s21.36,0,21.36,0" transform="translate(-163.79 -165.32)"/><path class="stroke-2" d="M593.79,777.91S587.55,785,591,789.44s20.31-3,27.3-9.49,5.72-11.71,1.47-10.6" transform="translate(-163.79 -165.32)"/><path class="stroke-2" d="M591.45,775.2s-10.23,6.62-8.75,14.44,25.22,6,36.89-2.28,12.07-15.33,9.8-19.48-10-3-10-3" transform="translate(-163.79 -165.32)"/><path class="stroke-2" d="M782.24,579.74" transform="translate(-163.79 -165.32)"/><path class="stroke-2" d="M792.53,571.17c3.27,1.86,5.17,4.09,4.76,6.07-.71,3.42-8,4.8-16.39,3.07s-14.54-5.9-13.83-9.32c.41-2,3-3.26,6.7-3.67" transform="translate(-163.79 -165.32)"/><path class="stroke-2" d="M783.46,567.91" transform="translate(-163.79 -165.32)"/><path class="stroke-2" d="M795.1,589.08c-.71,3.42-8.05,4.8-16.39,3.07s-14.54-5.9-13.83-9.32" transform="translate(-163.79 -165.32)"/><line class="stroke-2" x1="603.28" y1="405.66" x2="601.09" y2="417.5"/><line class="stroke-2" x1="633.5" y1="411.91" x2="631.31" y2="423.76"/><path class="stroke-2" d="M729.81,705.84c2.13,3.4,2.77,6.45,1.38,8-2.31,2.63-9.36.19-15.76-5.44s-9.71-12.32-7.4-14.94c1.65-1.88,5.73-1.17,10.26,1.45" transform="translate(-163.79 -165.32)"/><path class="stroke-2" d="M725.34,721.17c-2.31,2.63-9.37.19-15.76-5.44s-9.71-12.32-7.4-14.94" transform="translate(-163.79 -165.32)"/><line class="stroke-2" x1="544.24" y1="528.16" x2="538.41" y2="535.44"/><line class="stroke-2" x1="567.41" y1="548.55" x2="561.99" y2="555.41"/><path class="stroke-2" d="M761.9,422.11c-4.22,1.6-6.84,3.6-6.57,5.36.44,2.85,8.3,4,17.55,2.58s16.41-4.89,16-7.74c-.25-1.61-2.87-2.68-6.78-3.05" transform="translate(-163.79 -165.32)"/><path class="stroke-2" d="M758.33,439.47c.44,2.85,8.3,4,17.55,2.58s16.41-4.89,16-7.74" transform="translate(-163.79 -165.32)"/><line class="stroke-2" x1="591.55" y1="262.14" x2="594.55" y2="274.14"/><line class="stroke-2" x1="625.06" y1="256.99" x2="628.06" y2="268.99"/><path class="stroke-2" d="M684,303.64c-1.89,3.7-2.46,6.63-1.23,7.64,2.08,1.71,8.55-2.71,14.45-9.88s9-14.37,6.91-16.09c-1.34-1.1-4.5.34-8.15,3.41" transform="translate(-163.79 -165.32)"/><path class="stroke-2" d="M692.79,321.28c2.08,1.71,8.55-2.71,14.45-9.88s9-14.37,6.91-16.09" transform="translate(-163.79 -165.32)"/><line class="stroke-2" x1="540.36" y1="119.99" x2="550.36" y2="129.99"/><path class="stroke-2" d="M590.93,227.23c.82-4.9.16-8.65-2.06-9.65-3.54-1.6-9.73,4.45-13.81,13.52s-4.51,17.7-1,19.3c2.61,1.17,6.64-1.79,10.22-7.05" transform="translate(-163.79 -165.32)"/><path class="stroke-2" d="M577.87,212.58c-3.54-1.6-9.73,4.45-13.81,13.52s-4.51,17.7-1,19.3" transform="translate(-163.79 -165.32)"/><line class="stroke-2" x1="425.08" y1="52.25" x2="414.08" y2="47.25"/><line class="stroke-2" x1="410.3" y1="85.08" x2="399.3" y2="80.08"/><path class="stroke-2" d="M442.25,230.31c-.48,5.25-2.71,9.21-6,9.87-4.82,1-10.14-5.32-11.87-14s.76-16.56,5.58-17.52c3.45-.68,7.14,2.32,9.6,7.27" transform="translate(-163.79 -165.32)"/><path class="stroke-2" d="M423.21,244.18c-4.82,1-10.14-5.32-11.87-14s.76-16.56,5.58-17.52" transform="translate(-163.79 -165.32)"/><line class="stroke-2" x1="253.14" y1="47.31" x2="266.14" y2="43.31"/><line class="stroke-2" x1="259.42" y1="78.86" x2="272.42" y2="74.86"/><path class="stroke-2" d="M313.35,284.57c2.71,4.19,3.74,7.83,2.29,9.14-2,1.84-8.12-1.6-13.62-7.67s-8.32-12.48-6.3-14.31c1.58-1.44,5.67.36,10,4.12" transform="translate(-163.79 -165.32)"/><path class="stroke-2" d="M305.64,303.71c-2,1.84-8.12-1.6-13.62-7.67s-8.32-12.48-6.3-14.31" transform="translate(-163.79 -165.32)"/><line class="stroke-2" x1="151.86" y1="128.39" x2="141.86" y2="138.39"/><line class="stroke-2" x1="131.93" y1="106.4" x2="121.93" y2="116.4"/><path class="stroke-2" d="M225.42,390.87c4.52,2.45,7.2,5.76,6.43,8.53-1.06,3.83-8.29,5.16-16.15,3s-13.38-7.05-12.32-10.87c1-3.43,6.85-4.86,13.71-3.56" transform="translate(-163.79 -165.32)"/><path class="stroke-2" d="M228.85,411.4c-1.06,3.83-8.29,5.16-16.15,3s-13.38-7.05-12.32-10.87" transform="translate(-163.79 -165.32)"/><line class="stroke-2" x1="68.06" y1="234.08" x2="65.06" y2="246.08"/><line class="stroke-2" x1="39.6" y1="226.19" x2="36.6" y2="238.19"/><path class="stroke-2" d="M190,536.19c-5.94,1.16-10.16,3.95-10,6.89.24,3.54,6.8,6,14.64,5.44s14-3.84,13.77-7.38c-.21-3.08-5.19-5.32-11.64-5.51" transform="translate(-163.79 -165.32)"/><path class="stroke-2" d="M182.07,555.08c.24,3.54,6.8,6,14.64,5.44s14-3.84,13.77-7.38" transform="translate(-163.79 -165.32)"/><line class="stroke-2" x1="16.28" y1="377.76" x2="18.28" y2="389.76"/><line class="stroke-2" x1="44.7" y1="375.82" x2="46.7" y2="387.82"/><path class="stroke" d="M516,298.71s115.66-16,162.47,50.82,46.16,107.6,0,118.68-157.33-40-187.79,15.82,58.15,93.21,58.15,93.21" transform="translate(-163.79 -165.32)"/><path class="stroke" d="M536.52,313.26s73.32-11.6,119.47,40.09,35.61,96.47-41.4,111.27" transform="translate(-163.79 -165.32)"/><path class="stroke" d="M548.12,564.6s-22.42-5.27-23.21-34.55,11.34-59.07,61.19-57,88.29-4.1,88.29-4.1" transform="translate(-163.79 -165.32)"/><path class="stroke" d="M599.63,545s17.59,7.51,37.77-7.52,33.43-55.58,71-64.88,59,.37,68,10.27" transform="translate(-163.79 -165.32)"/><path class="stroke" d="M613.86,581.06s8.31-9.78,14.83-13.74,21.76-18.61,38-40,27.89-39.56,51.63-39.76,51.43,10.69,60,39.17" transform="translate(-163.79 -165.32)"/><path class="stroke" d="M797,523.4s2,40,48.08,34.41,60.39-85.78,61.45-99.23S910.36,397,933.31,380s49.45-25.32,74,0,51.62-12.07,51.82-32.24.5-53.34,13.58-65.48,40.12.34,60.48,6.5S1170,274.49,1170,274.49c-2.5-13.58-16-3-20.57-11.2s9.89-28.09-1.45-28.75c0,0-9,2.44-11.74,19.05s-17.71,25.48-31.11,19.07" transform="translate(-163.79 -165.32)"/><path class="stroke" d="M794.21,557.26s21.87,26.44,62,13.73,46.94-48.85,39.29-110.56S910.5,356,935.81,342s42-12.74,49.06,4.75,10.12,39.89,42.72,22c28-15.35,2.44-69.3,25.59-92.64,0,0,17.17-30.71,80,12.63" transform="translate(-163.79 -165.32)"/><path class="stroke" d="M550.5,457.43s100-27,122.33-81.47" transform="translate(-163.79 -165.32)"/><path class="stroke" d="M583.61,460s69-35,94.81-73" transform="translate(-163.79 -165.32)"/><path class="stroke" d="M691.25,369.16S703.36,331,712.9,333.85" transform="translate(-163.79 -165.32)"/><path class="stroke-2" d="M682.79,355.9s9.6-22.71,10-34.62l-10-10" transform="translate(-163.79 -165.32)"/><path class="stroke" d="M712.17,292.56S723,275,736.5,274s28.68,1.83,30.46,16.34-11.08,60.4,22.74,57.24,25.92-38.74,36.2-50.52,21.36-8,29.28,4.63,25.32,33.06,45.89,20-2.18-37.4,3.36-46.89S934.5,263.88,943.2,258a27.65,27.65,0,0,0,10.88-14.44s-17.21-1.13-20-9,2.18-16.16-4.75-21.3-9.49-4.15-9.49-4.15,4.94,12.06,2.17,21.16-37.18,13.9-38.57,35.33,23.94,32.52,9.3,48.54-41.4-17.6-41.4-17.6" transform="translate(-163.79 -165.32)"/><path class="stroke" d="M763.69,281.94a33.57,33.57,0,0,1,9.6,16.36C776.06,309,778.23,328.16,796,329s22.39-31.47,35.56-36.87" transform="translate(-163.79 -165.32)"/><path class="stroke" d="M730.34,323.88s14.32-12.12,38.62,13" transform="translate(-163.79 -165.32)"/><path class="stroke" d="M807.92,340.22s31.18-43.08,66-18.57" transform="translate(-163.79 -165.32)"/><path class="stroke-2" d="M609.05,473.52s-65.61-18.63-86,17.5,2.11,62.83,13.45,67" transform="translate(-163.79 -165.32)"/><path class="stroke-2" d="M611,546.84s13.39,13.15,39.3-14.74,25.52-40.35,41-43.32" transform="translate(-163.79 -165.32)"/><path class="stroke" d="M558.05,476.09s6.16,4.91,6.42,12.69-6.42,8.31-3.21,13.58,12.58,4,14.29,11.74,2,11.87,5,14.5S595.73,533.88,598,540s.74,13.31.74,13.31a10,10,0,0,1,9.68,5.54c3.29,6.33-.26,9.76.66,11.08s6,6.59,3.29,17.54S610,605.09,610,605.09" transform="translate(-163.79 -165.32)"/><path class="stroke" d="M535,556.54s11.19-3,14.36,4.37-2.51,23.21,6.46,30.86,25.32,12,28.35,16.61" transform="translate(-163.79 -165.32)"/><path class="stroke-2" d="M587.81,625.26s-7.91-3.29-7.51-11.07,20.82-11.61,32.83-7.26,15.83,14.38,10.16,18.33" transform="translate(-163.79 -165.32)"/><path class="stroke-2" d="M588.14,620.52s-5.44-1.47-1.88-5.33,14.84-7.33,24.83-4.27,10.28,7.12,8.21,8.61" transform="translate(-163.79 -165.32)"/><path class="stroke" d="M587.88,614.53s4.47,9.74-2.82,14.29-23.42,7.82-22.43,20.87,19,10.09,19,10.09" transform="translate(-163.79 -165.32)"/><path class="stroke-2" d="M637.66,651.11c6.05-1.89,16.35,4.22,14.24,16s-17.83,9.89-21.11,5.14S622.5,655.86,637.66,651.11Z" transform="translate(-163.79 -165.32)"/><path class="stroke-2" d="M646.09,652.65s2.12-2.35,7.13-1.88,2.11,7.2,10.81,5.61,5.15-8.7,10.82-10.41,15.43,0,15.43,0-11.74,2.85-13.72,10.66-1.19,14.66-11.21,16.11-14.57-2.35-14.57-2.35" transform="translate(-163.79 -165.32)"/><path class="stroke" d="M617.75,614.53s-.79,5.72,7.38,13.24,22.41,5.08,22.94,23.64" transform="translate(-163.79 -165.32)"/><path class="stroke-2" d="M629.85,670.73s-8,6-15.13-1.29-.93-14.7,0-18-.93-7.82-.93-7.82" transform="translate(-163.79 -165.32)"/><path class="stroke-2" d="M598.53,643.59s2.87,7.49,1.48,9.76-6,6-4.25,10.39,10.78,6.71,17.16,3.45" transform="translate(-163.79 -165.32)"/><path class="stroke-2" d="M587,646.53s-8,8.5-3.07,14.63,11.88-1.54,11.88-1.54" transform="translate(-163.79 -165.32)"/><path class="stroke-2" d="M584.71,649.5s-6.26-2.8-7.05,1.27,5,3.3,5,3.3" transform="translate(-163.79 -165.32)"/><path class="stroke-2" d="M540.08,493.33a10.72,10.72,0,0,0,3.56,2.18c2.17.79,10.88,3.75,10.48,7.12s1.58,9.69,1.58,9.69" transform="translate(-163.79 -165.32)"/><path class="stroke-2" d="M530.19,530.62s-.3-5.35,2.27-8.11,2.87-9.2-.49-10.19" transform="translate(-163.79 -165.32)"/><path class="stroke-2" d="M561,517.46s6.43,1.39,8,5.44-4.65,8.61-1.88,13.85,10.68,1.68,13.45,2.47,10.58,6.23,9.1,2.77" transform="translate(-163.79 -165.32)"/><path class="stroke-2" d="M531.77,543.13s5.24-.35,6.23-6.78,10.58-12,15.83-6.05-2.68,13.77,9.79,15.65" transform="translate(-163.79 -165.32)"/><path class="stroke-2" d="M580.28,548.32s-2,4.35,3.84,7.22,18.35,9.2,19,19-3.85,12,1.49,26.7" transform="translate(-163.79 -165.32)"/><path class="stroke-2" d="M559.54,554.35s6.05,6.76,4.08,10.25,4,6.76,4,9.43,4.25,15.23,10.78-8.4" transform="translate(-163.79 -165.32)"/><path class="stroke-2" d="M588.84,589.46s-7-9.59-13.85-6-8.7,2.62-8.7,2.62" transform="translate(-163.79 -165.32)"/><path class="stroke-2" d="M482.12,469s6.73-2,3-5.92-9.89,6.23-4.55,8.7,15.72,2.87,15.63-5.34-4.55-7-5.15-9.69-1.47-8.11-6.77-8.61-10.44,4.16-14.49,3.66-9.79,3.31-8.51,8.92,6,7.7,9.89,6,6.53-9.39.3-9.3-4.25,6.27-2.08,7.19" transform="translate(-163.79 -165.32)"/><path class="stroke-2" d="M447.51,428.52s-1.19,8.17,4.22,9.62,9.36-4.74,17.67-2.63,5.27,8.3,10.81,6.85,3.16-4.35,3.16-4.35-2.37-1.76-2.24-2.46.93-.84,1.72-2.29-1.32-2.37-1.32-2.37l-.27-4.75-3.82-1.05s.53-2.9-.66-3.69-5.41-.53-5.41-.53-2.11-2.77-3.29-2.77-4.75,2.9-4.75,2.9-2.64-1.71-3.43-1.71-2.37,3.16-3.16,3.16-5.28-.13-5.28-.13S451.59,431.15,447.51,428.52Z" transform="translate(-163.79 -165.32)"/><path class="stroke-2" d="M492.11,437.13s-4.05,5.17-3.16,6.75,12.26-2,16.51,2.27,6.93,13.65,10.19,13.36,7.61-6.53,7.61-6.53-4,.49-3.75-.79,2.37-2.08,1.78-3.27-2.48-4.74-1.88-5.93.39-2.18-1.09-2.28-3.31-2.37-3.48-2.76.51-2.48-.48-2.28-3.75.69-4.15.4-1.48-2.87-2-2.87-1.09,1.68-1.68,1.58-4-.89-4-1.58-2.67,2.07-2.67,2.07l-4.15.1S492.9,437.8,492.11,437.13Z" transform="translate(-163.79 -165.32)"/><path class="stroke-2" d="M496.36,444.07c-2,0-8.83,8.39-1.39,12,6.24,3,14.44,3.26,13.41-6" transform="translate(-163.79 -165.32)"/><path class="stroke-2" d="M460,436.35s-2.07,3.56-.07,6.23,5.64,5.45,10.78,3.72,5.07-6.06,5.07-6.06" transform="translate(-163.79 -165.32)"/><circle class="stroke-2" cx="307.53" cy="276.45" r="1.46"/><circle class="stroke-2" cx="340.53" cy="288.45" r="1.46"/><path class="stroke-2" d="M442,465.84c.66-.33-2.18-5.77,4.15-10.6S456,450,456,450s-12.66-3.76-17.21.53-6.26,3.72-6.72,4.7S441.31,466.16,442,465.84Z" transform="translate(-163.79 -165.32)"/><path class="stroke-2" d="M445.2,448.5s-5.21-8.38-12.53-5.26-5.27,9.08.81,14.29" transform="translate(-163.79 -165.32)"/><path class="stroke-2" d="M448.14,453.78S461,477,474,479.29s19.19.57,19.19.57" transform="translate(-163.79 -165.32)"/><path class="stroke-2" d="M441.52,465.65c3.15,2.36,1.44,25.9,22.9,30.25s22.25-2.9,22.25-2.9" transform="translate(-163.79 -165.32)"/><path class="stroke-2" d="M457.2,415s7.71-15.43,5.74-21.16-12.89-22.55-15.54-27.7-1.28-11.27-4.84-10.88-8.7,3.76-9.3,4.75,1.39,13.69,0,15.95-7.91,8-3.56,18.07,13.06,18.2,10.09,25.92" transform="translate(-163.79 -165.32)"/><path class="stroke-2" d="M440.39,369.9s3.24,8.51,7.75,11.87,10.05,13.25,3.12,19.58S441,398,443,396s5.51.79,4.44,2.18" transform="translate(-163.79 -165.32)"/><path class="stroke-2" d="M493.2,410.05a2.58,2.58,0,0,0,.79,2.72c1.34,1.14,2.91,2.1,6-.47s5.23-8.77,4.58-10.75-3.36-4.29-4.58-3.3S498.67,409.4,493.2,410.05Z" transform="translate(-163.79 -165.32)"/><path class="stroke-2" d="M504.72,402.61s.68-1.79,2.85-.93,4.49,2.7,4.49,5-2.91,8.77-5.15,8.77-8.44.2-8.54-2" transform="translate(-163.79 -165.32)"/><path class="stroke-2" d="M506.91,415.46s3.3,1.32,14,9.43,8.41,24,8.41,24,5-3.68,5.54-7.33-3.07-17.49-11.08-22.93a96.29,96.29,0,0,0-13-7.67" transform="translate(-163.79 -165.32)"/><path class="stroke-2" d="M534.84,441.59s5.14-7.5,3.06-12.94S526.1,409.71,512,406" transform="translate(-163.79 -165.32)"/><path class="stroke-2" d="M494.19,409.26s-21.25-6.75-32.65-4.79" transform="translate(-163.79 -165.32)"/><path class="stroke-2" d="M499.8,398.55s-14.85-9.61-37.5-6.27" transform="translate(-163.79 -165.32)"/><path class="stroke-2" d="M498.15,404.45s-7.67-7.65-34.89-7.25" transform="translate(-163.79 -165.32)"/><path class="stroke-2" d="M533.32,444.93s23.83-17.47,24.1-18.79-21.06-6.64-23.55-4.34" transform="translate(-163.79 -165.32)"/><path class="stroke-2" d="M424.66,431.91c1.09.3,7.32-5.83,9.2-5s2.08,4.15,3.16,4.25,4.16-2.13,5.15-1.17-.8,5.62,0,5.82,3.06.65,3.95,1.36-2.08,3.19-2.08,3.19" transform="translate(-163.79 -165.32)"/><path class="stroke-2" d="M444.79,456.39s2,10.14,2.61,10.24,3-1.78,4,0-2,7.51-.59,8.3,5.24-.59,5.24-.59-1.78,4.85-.49,5.54,5.63-.2,6.13,0,0,2.77,0,2.77l4.45.59,2.77,1.88,1.8-.89s1.56,3.26,2.11,3.26,6.18.2,6.47.4,4,1.58,5.94,1.09a18.77,18.77,0,0,0,3.63-1.36" transform="translate(-163.79 -165.32)"/><path class="stroke-2" d="M486.67,491.55l-5.27-1.85a13.78,13.78,0,0,1-2.78,3.7,3.16,3.16,0,0,0-.52,3.89" transform="translate(-163.79 -165.32)"/><path class="stroke-2" d="M468.7,496.66s.6-3.53,2-4.06,1-3.48,2.11-3.52,3.58,1.61,7.09,3" transform="translate(-163.79 -165.32)"/><path class="stroke-2" d="M464.1,495s-2.62-4.49-2-5.28,1.45-2.77.93-3,3.51,1.19,4.39,1.32,3.69,2.47,3.21,2.82-.9,2.69-.9,2.69S467.63,497.48,464.1,495Z" transform="translate(-163.79 -165.32)"/><path class="stroke-2" d="M463,488.22a26.87,26.87,0,0,0-3.87-2.34c-.91-.26-5-2.37-5-2.37s-1.32,5.67,0,6.72,6.43,5.25,8.87,5.34S458.78,489.37,463,488.22Z" transform="translate(-163.79 -165.32)"/><path class="stroke-2" d="M454.1,483.51s-3.16-3.56-2.37-4.88-2.9-2-2.9-2-3,3-2.12,4.82,6,8.31,6.8,7.61S451.33,483.51,454.1,483.51Z" transform="translate(-163.79 -165.32)"/><path class="stroke-2" d="M448.83,476.65s-5.46-6.08-5.67-6.93,3.4,10.74,3.4,10.74Z" transform="translate(-163.79 -165.32)"/><path class="stroke-2" d="M523.26,453s4.29-1.91,6-4.06" transform="translate(-163.79 -165.32)"/><path class="stroke-2" d="M515.65,459.51s-2.94,4.29-.81,3.49" transform="translate(-163.79 -165.32)"/><path class="stroke-2" d="M440.28,418.1s-3.78-4-4.81-4.17-2.63,6.67-3.41,6.67-4.86-5.67-5.39-5.67-1.71,6.07-.92,7.12-7.91.16-8.84,1.73S418.5,431,418.5,431s-3.58,4.44-1.79,6.11,5.61-2.15,5.61-2.15" transform="translate(-163.79 -165.32)"/><path class="stroke-2" d="M418.24,437.52s-2.08,4.88-2,5.72,6.51,5.68,6.51,5.68" transform="translate(-163.79 -165.32)"/><path class="stroke-2" d="M421.63,448.09s-4.59,4.71-4.72,5.69S423,464.25,425.22,464s5.28,2.56,4.88,3.13-3.82,5.13-2.9,6.21,8.27,2.79,8.27,2.79l-.75,7.39s3.95,1.45,3.82,2.11-1.71,6.73-.79,7.25,3.19-.13,3.77.46.84,7.19,1.63,7.85,4.88-.53,6.07,0,1.45,5.8,2.11,5.8,7.65-2.24,8.57-2.11-.43,2.9,1.17,3.16,5-2.24,5.73-2,2.33,1.76,3.06,2,6.26-1.47,6.92-1.47,0,1.94,1.84,1.5,5.69-2.95,5.69-2.95" transform="translate(-163.79 -165.32)"/><path class="stroke-2" d="M416.91,412.43s-9.16,19.39-13.12,25.12-2.57,15.93,0,18.84,6.93,13.67,4,18.68-25.32,13.39-25.72,17.8,3.76,9.56,3.56,12.72-.39,8.11,3.17,8.9,10.09,5.54,13,7.52,14.77,6.86,19.91-1S426,501.31,426,501.31" transform="translate(-163.79 -165.32)"/><path class="stroke-2" d="M394.5,502c1.41.5,7.78,2.9,7.12,5.27a5,5,0,0,1-6.33,3.17C392.39,509.48,393,501.44,394.5,502Z" transform="translate(-163.79 -165.32)"/><path class="stroke-2" d="M529.3,567.05s-4.12,11.48-11.51,10.19-18.19-13.1-21.62-22.89-10.18-25.85-16.3-29" transform="translate(-163.79 -165.32)"/><path class="stroke-2" d="M485.62,538.23s-18.05-21-32.11-22.68-17.34,2.9-21.17,3" transform="translate(-163.79 -165.32)"/><path class="stroke-2" d="M500.91,580.3S488,559.73,483.64,549.7s-13.36-23.32-33.32-23-29.32,16.08-43,3.92" transform="translate(-163.79 -165.32)"/><path class="stroke-2" d="M403,522.72a16.82,16.82,0,0,1,1.08,16.5c-4.39,8.9-15.86,29.27-3.2,48.07s23.93,3.75,34.81,22.15-8.84,38.37,6.06,48.66,22.69-.4,32.84,2.9,19.52,8.7,28.09-3.82,4.61-29.15,9.36-33.5,17-6.06,18.46-22.28-8-13.26-7-19.92,5.16,2.24,5.29-13.12" transform="translate(-163.79 -165.32)"/><path class="stroke-2" d="M409.88,596c-5.29-1.86-22.11,1.85-25.14-21.5s15.93-28.37,15.93-28.37" transform="translate(-163.79 -165.32)"/><path class="stroke-2" d="M508.36,640.53s9.7,2.93,8.11,15.59-18,20.84-33.33,7.78" transform="translate(-163.79 -165.32)"/><path class="stroke-2" d="M516.44,650.72s6.36,10.74,2.54,19.81-24.29,14.21-29-2.15" transform="translate(-163.79 -165.32)"/><path class="stroke-2" d="M488.82,667.79s-5.62,23.94,16.29,27.5,27.95-14.34,25.49-28c-2-11.15-13.81-16-13.81-16" transform="translate(-163.79 -165.32)"/><path class="stroke-2" d="M361.07,459.51s9.69-1.88,10.88-3.12,6.92-7.27,11.07-4.9,8.51,13.83,5.15,18.19-17.41,2.73-20.77-.81S360.28,461.78,361.07,459.51Z" transform="translate(-163.79 -165.32)"/><path class="stroke" d="M327.85,417s4.93,11.14-1.27,17.6-25.05,18-24,26.13,15.56,26.29,17.54,25.93,3-6.83,3-6.83,3.17,6.46,9.1,5.41,4-3.75,4-3.75,4.62,2.56,8.31,2,4.48-3.05,4.48-3.05a19.44,19.44,0,0,0,7.91,1c3.76-.5,2.08-4.36,2.08-4.36s5.34,2.87,10.29,1.78,6.33-6.15,6.33-6.15" transform="translate(-163.79 -165.32)"/><path class="stroke" d="M357.11,409.56s3.26,6.59,5.64,8.54a15.77,15.77,0,0,1,6,10.94c.5,5.54-3.16,16.17,6.53,23.54" transform="translate(-163.79 -165.32)"/><path class="stroke-2" d="M312.41,473.62s9.69-5.15,10.94,5.67" transform="translate(-163.79 -165.32)"/><path class="stroke-2" d="M309.44,461s19.39-6.07,13.91,16" transform="translate(-163.79 -165.32)"/><path class="stroke-2" d="M339.07,428.52s8.54,17.14,0,24.66-15.39-.82-23,3.21" transform="translate(-163.79 -165.32)"/><path class="stroke-2" d="M366.78,458.24s-1.3-8.52-10.06-6.86-12.86,8.92-8.38,14.06,10.29,11.21,10.29,11.21" transform="translate(-163.79 -165.32)"/><path class="stroke-2" d="M348.66,455.6s-6.65-7-11.79,1.47,4.48,13.05,6.33,15.32,6.39,6.33,5.8,8.07" transform="translate(-163.79 -165.32)"/><path class="stroke-2" d="M331.46,459.9s-9.49,9.63,2.9,20.24" transform="translate(-163.79 -165.32)"/><path class="stroke-2" d="M328,468.9s-3.85-1.42-4.64,8.47" transform="translate(-163.79 -165.32)"/><path class="stroke-2" d="M328.53,421.63s-6.53-1.78,2.08-8.51,21.73-5.7,26.76-4.75,6.66,4.68,3.1,6.35" transform="translate(-163.79 -165.32)"/><path class="stroke-2" d="M329.69,426.61s-8.18-2.12-7.85-8.18,10-12.53,19.71-14.11,24.53.2,25.65,6.06-4.45,7.72-4.45,7.72" transform="translate(-163.79 -165.32)"/><path class="stroke" d="M321.83,338.65s.77,7.51,6.16,10.68,16.22-.4,18.52,6.92,0,11.87,2.54,14.64,11,9.1,10.24,14.44-4.75,7.43-2.7,18.44" transform="translate(-163.79 -165.32)"/><path class="stroke" d="M389.36,364.16a29,29,0,0,0-11.88-15.23c-9.09-5.53-13.84-.39-22.74-6.72s-1.41-15.43-14.16-19.19-12,2-17.23,1.78-13.71-11.07-25.78,1.19-.66,23.54-2.51,31.85-7.38,11.27-4,19,9.15,7.72,11.5,13.06-4.46,11.3,22,22.38" transform="translate(-163.79 -165.32)"/><path class="stroke-2" d="M380.91,371.21s-.39-11.66-12-13.77-8,8-17.4-1.58" transform="translate(-163.79 -165.32)"/><path class="stroke-2" d="M303.9,349.13s3.43,10.34.53,14.4-2,11.18,2,16.06,6.06,8.57,5.93,11.87,12.66,12.85,15,13.94" transform="translate(-163.79 -165.32)"/><path class="stroke-2" d="M346.5,373s1.45,10.42-5,8-6.19-17.93-17-14" transform="translate(-163.79 -165.32)"/><path class="stroke-2" d="M335.55,388.3s4.13,2,5,1.71,6.71-9.07,9.74,7.27" transform="translate(-163.79 -165.32)"/><path class="stroke-2" d="M354,364.43s-1.35,3.43,5.33,5.41,7.33,11.2,1.92,15.56" transform="translate(-163.79 -165.32)"/><path class="stroke-2" d="M368.52,371.81s6.85,3.08,5.93,9.59-3.82,7.42,3.43,13.36" transform="translate(-163.79 -165.32)"/><path class="stroke-2" d="M387.37,386.68s-19.69,24.14-2.72,66.18" transform="translate(-163.79 -165.32)"/><path class="stroke-2" d="M368.52,424.89a54.22,54.22,0,0,1,12,15.43" transform="translate(-163.79 -165.32)"/><path class="stroke-2" d="M389.22,467.12s2.7,12,18.53,7.95" transform="translate(-163.79 -165.32)"/><path class="stroke" d="M471.59,391.12s14.83-25,27.32-34.47,23-19.19,24.35-19S503,363.64,504,367.73s15.29,3.16,14.37,4.22a18.18,18.18,0,0,1-15,8.3c-10.29.4-13.35,13.43-13.35,13.43" transform="translate(-163.79 -165.32)"/><path class="stroke" d="M532.72,419.32s11.81-17.31,12.65-24.56-1.27-9,5.13-17.54,1.84-14.64,1-15.23-8.67,4.55-8.49,6.72-.41,9.5-3.18,10.69-7.61,6-7.61,6,2.4-12.86,1.05-13.59-9.58,17.94-8.13,22.95-2.82,13.52-4,14.73" transform="translate(-163.79 -165.32)"/><path class="stroke" d="M399.85,546.38s-15.24,3.89-23.55-5.79-19.39-19.86-38.18-19.12-18.33,13-20.24,15.38-13,8.36-9.82,21.19,14.57,15.86,15.29,22.26-1.45,15.89,12.4,26.37,21.76,22.15,21.16,24.92" transform="translate(-163.79 -165.32)"/><path class="stroke" d="M342.21,540.59s-3.1,12.08,8.57,13.76,23.14-.16,25.72,10.25-2,21.89,6.33,30.2,12.19,15.83,12.22,22.35-5.7,11.08-6.09,14.44" transform="translate(-163.79 -165.32)"/><path class="stroke-2" d="M338.12,521.47s21.74-1,24.91,34.08" transform="translate(-163.79 -165.32)"/><path class="stroke-2" d="M374.91,551.48c.2-.29.22-12.46-6.46-19" transform="translate(-163.79 -165.32)"/><path class="stroke-2" d="M334.36,528.6s-3.29,5.41-6.46,6.6S321,546.93,321,546.93s3.7-6.72,8.18-7.78S336,535.14,334.36,528.6Z" transform="translate(-163.79 -165.32)"/><path class="stroke-2" d="M349.13,560s.4,5.4,3,5.4,16.93-1.19,19.54,8S368.1,588,363,585s1.27-13-11.13-8.53" transform="translate(-163.79 -165.32)"/><path class="stroke-2" d="M324.87,564.6s6.72,2.51,5.27,9.63-2.77,11.47,2,15.69,9,7,9.72,10.29.42,11.08,8.74,11.74,11.46-3.17,10.15-7.65-3-4.35-2.37-5.94" transform="translate(-163.79 -165.32)"/><path class="stroke-2" d="M358.63,589.4s1.55,5.26,4.4,4.48,5.32-5.25,9.29.08,0,16.4,0,16.4" transform="translate(-163.79 -165.32)"/><path class="stroke-2" d="M361.46,644.25s-13.68-6.13-2.83-13,27.77-2.19,34.29,3.75,2.47,13.26-6.44,13.75" transform="translate(-163.79 -165.32)"/><path class="stroke-2" d="M386.29,644.05c3.46-.19,5.54-3.85,1.48-7.61s-21.66-4.45-25.91-1.58S363,640.1,363,640.1" transform="translate(-163.79 -165.32)"/><path class="stroke" d="M361.46,636s8.12,14.79-7,12.81-14-15.72-16.79-17.21-15.43,1.06-18.86.66-9.49-1.45-10-.66-.92,6.94,1.06,8.94,2.63,2.8,2.63,2.8-7,.9-5.53,5.52,2.4,4.07,2.5,4.9-3.82,7.38-.66,9.76a44.61,44.61,0,0,1,5.67,5.14s-3.3,4.35-1.58,5.93,7.65,3,7.65,3-2.38,8,2.77,7.64,6.85-3.16,6.85-3.16a23.2,23.2,0,0,0,12.8,3.18c7.64-.28,21.09-1.07,29.8,3.41s23.6,15.56,33.49,5.15,2.67-24.53-6.38-30.6S381.56,650.13,387.21,637" transform="translate(-163.79 -165.32)"/><path class="stroke-2" d="M385.76,579.75s1.61,13.34,12.3,20.13,13.05,20.66,15.82,33.21,9.89,40.35,27.3,45.93,14.24-6.39,27.69-1.49S491.92,692.72,498,693" transform="translate(-163.79 -165.32)"/><path class="stroke-2" d="M453.24,642.37s6.73,7.32-.89,9.4-12.16-10.29-12.16-10.29m19.38-3.85s-4.55,5.14-4.45,7.46m-8.91,5.25a27.36,27.36,0,0,0-4.33,3.41m12.76-3c2.39,5.28,9.28.63,9.28.63m-8-4c8.72,1.66,9.08-4,9.08-4m-19.81,6.11c-1.59-1.29.72-4.72,1.71-6.11s-3.56-7-3.56-7m5.15-5.26s3,4.63,3,7.89,2.25,3.92,2.25,3.92m-1.11-.72c-2.73-1.75-5.69,1.15-5.69,1.15" transform="translate(-163.79 -165.32)"/><path class="stroke-2" d="M533.7,569.55s-3,14.58,1.25,16.29,23.19,10.94,17.13,30.46-17.15,13.24-19.39,28.91.08,19.21-1.87,23.5" transform="translate(-163.79 -165.32)"/><path class="stroke-2" d="M548,625.26s-7,11.58-4.32,21.48,8.7,9.41,8.7,9.41S531.54,661.83,535,679s19.83,46.7,19.87,48.43" transform="translate(-163.79 -165.32)"/><path class="stroke-2" d="M522.48,692.33s17.73,24.58,5.2,28.41-20.87-16.38-20.06-25.14" transform="translate(-163.79 -165.32)"/><path class="stroke-2" d="M499.89,693.88s-4.95,27.25,5.22,32,11.63,2.11,18.09,3.56,14.25,6.46,21.5-7.65-17.43-34.47-17.43-34.47" transform="translate(-163.79 -165.32)"/><path class="stroke-2" d="M491.05,690.15s.24,31.25,15.53,44.83,32.77,15.81,40.36,9.89,7.58-18.34,7.58-18.34" transform="translate(-163.79 -165.32)"/><path class="stroke-2" d="M470.23,678.05s13.41,39.79,15.39,45.72,30.26,34.28,49,32.83,13.09-12.19,19.65-14.93" transform="translate(-163.79 -165.32)"/><path class="stroke-2" d="M458.36,677.53s2.1,10-1,14.2-.22,21.89,12.31,34,29.8,20.83,37.19,19.51" transform="translate(-163.79 -165.32)"/><path class="stroke-2" d="M426.63,666.91s-11.56,8.6-5.23,19.28,24,12,28.68,25.27,19,33,34.22,38.12,28.95,4.9,34.3,3" transform="translate(-163.79 -165.32)"/><path class="stroke-2" d="M410.79,684.86s10.23,47.85,60.86,57.23" transform="translate(-163.79 -165.32)"/><path class="stroke-2" d="M417.14,412.43s-23.91-9.65-27.78-25.75.39-39.79,28.74-61.94" transform="translate(-163.79 -165.32)"/><path class="stroke-2" d="M421,411s-38.75-13.72-28.68-42.41,25.78-39.43,25.78-39.43" transform="translate(-163.79 -165.32)"/><path class="stroke-2" d="M422.72,409.56s-27.63-11.92-27.43-28.16,8.24-34,22.81-47.7" transform="translate(-163.79 -165.32)"/><path class="stroke-2" d="M428,409.26s-30.53-16.37-29.54-27.86,2.7-26.14,19.65-42.75" transform="translate(-163.79 -165.32)"/><path class="stroke-2" d="M432.87,408.46c-.79-1.37-30.38-13.14-28.84-31.19S419.46,343,419.46,343" transform="translate(-163.79 -165.32)"/><path class="stroke-2" d="M434.33,402.57s-27.77-11.7-26.58-24.16S421,347.15,421,347.15" transform="translate(-163.79 -165.32)"/><path class="stroke-2" d="M431.67,398s-23.13-12.9-20.95-22.29,12-25.61,12-25.61" transform="translate(-163.79 -165.32)"/><path class="stroke-2" d="M428.83,391.57s-17.72-8.55-13.76-19.76a72.7,72.7,0,0,1,9.59-18.52" transform="translate(-163.79 -165.32)"/><path class="stroke-2" d="M427.33,386.68s-19.56-7.68-1.27-30.82" transform="translate(-163.79 -165.32)"/><path class="stroke-2" d="M429.29,382.16c.33-.73-13.78-3.56-1.05-23.93" transform="translate(-163.79 -165.32)"/><path class="stroke-2" d="M430.78,379.38s-7.63-7.5,0-19.76" transform="translate(-163.79 -165.32)"/><path class="stroke-2" d="M433.26,360s-36.39-30.39,10.16-55.58" transform="translate(-163.79 -165.32)"/><path class="stroke-2" d="M435.45,358.23s-37.26-32.31,22.21-57" transform="translate(-163.79 -165.32)"/><path class="stroke-2" d="M437.08,357.26s-26.63-27.76,6.34-45.11S520,284.65,520,284.65" transform="translate(-163.79 -165.32)"/><path class="stroke-2" d="M440.06,355.9s-28.82-23.91,14-46.33" transform="translate(-163.79 -165.32)"/><path class="stroke-2" d="M442.56,355.26s-34.1-30.46,36.06-55" transform="translate(-163.79 -165.32)"/><path class="stroke-2" d="M444,355.25s-22.64-39.94,41.25-55" transform="translate(-163.79 -165.32)"/><path class="stroke-2" d="M448.38,367.93s-27.18-51.41,43-70.9" transform="translate(-163.79 -165.32)"/><path class="stroke-2" d="M454.1,377.55s-41-69.76,66.8-88.15" transform="translate(-163.79 -165.32)"/><path class="stroke-2" d="M455,377.55s-27.42-67,53.45-81.63" transform="translate(-163.79 -165.32)"/><path class="stroke-2" d="M458.26,384.62S446.58,334.31,465,321s31.68-21.4,69.84-30.5" transform="translate(-163.79 -165.32)"/><path class="stroke-2" d="M461.52,390.63S429.18,321.84,514.36,299" transform="translate(-163.79 -165.32)"/><path class="stroke-2" d="M463.26,391.57s-27.89-70.13,51.89-89.38" transform="translate(-163.79 -165.32)"/><path class="stroke-2" d="M464.62,392S444.74,321.44,516,304.43" transform="translate(-163.79 -165.32)"/><path class="stroke-2" d="M467.31,391.57S449.62,319.48,522.14,306" transform="translate(-163.79 -165.32)"/><path class="stroke-2" d="M470.58,390.63S455,323.55,526.1,308.78" transform="translate(-163.79 -165.32)"/><path class="stroke-2" d="M473.48,386.68s-14.9-61.14,55.92-74.53" transform="translate(-163.79 -165.32)"/><path class="stroke-2" d="M476,382.06c-4-.58-8.09-58.15,60.53-68.8" transform="translate(-163.79 -165.32)"/><path class="stroke-2" d="M479.51,378.27s-13.28-55.91,70.06-61.84" transform="translate(-163.79 -165.32)"/><path class="stroke-2" d="M483.1,374s-6.85-47,64-52.25" transform="translate(-163.79 -165.32)"/><path class="stroke-2" d="M540.61,342.41" transform="translate(-163.79 -165.32)"/><path class="stroke-2" d="M487.46,366.93s-4.09-32.17,53.15-38.11" transform="translate(-163.79 -165.32)"/><path class="stroke-2" d="M491.42,362.85S484.17,342,531.77,335" transform="translate(-163.79 -165.32)"/><path class="stroke-2" d="M495.77,358.23s1.58-13.4,24.26-18.57" transform="translate(-163.79 -165.32)"/><path class="stroke-2" d="M514.36,349.71s16-13.7,38.64-16.24" transform="translate(-163.79 -165.32)"/><path class="stroke-2" d="M506.55,369.9s5.7-20.37,36-29.21,33.37-1.91,43.26-7.22" transform="translate(-163.79 -165.32)"/><path class="stroke-2" d="M509.5,370.64s12-29.5,65.26-31" transform="translate(-163.79 -165.32)"/><path class="stroke-2" d="M493.09,395.37s3.83-13.12,12.82-15.37" transform="translate(-163.79 -165.32)"/><path class="stroke-2" d="M495.25,396.24s38.6-41.6,50.94-44.55" transform="translate(-163.79 -165.32)"/><path class="stroke-2" d="M515.15,369.9s15.72-18.57,27-20.19,17.86-5.85,28.28-6" transform="translate(-163.79 -165.32)"/><path class="stroke-2" d="M498.37,397.74s27-24.08,35-32.78,20.74-14.47,31.81-15.54" transform="translate(-163.79 -165.32)"/><line class="stroke-2" x1="338.41" y1="233.23" x2="348.27" y2="223.06"/><path class="stroke-2" d="M504.28,400.82s27.09-39.61,54.52-44.92" transform="translate(-163.79 -165.32)"/><path class="stroke-2" d="M507.57,401.68s12.77-18.36,22.51-24.91" transform="translate(-163.79 -165.32)"/><path class="stroke-2" d="M509.5,402.72s13.57-14.66,16.6-18.1" transform="translate(-163.79 -165.32)"/><path class="stroke-2" d="M511.4,404.59s13.38-12.23,13-12.61" transform="translate(-163.79 -165.32)"/><path class="stroke-2" d="M514.36,406.71s9.24-9,10-10.47" transform="translate(-163.79 -165.32)"/><path class="stroke-2" d="M551.55,362s42.59-17.47,52-25.78" transform="translate(-163.79 -165.32)"/><path class="stroke-2" d="M533.68,372.78s7.6-3.93,11-6.56" transform="translate(-163.79 -165.32)"/><path class="stroke-2" d="M533.68,376.77s6-1.43,7.72-4" transform="translate(-163.79 -165.32)"/><path class="stroke-2" d="M553,364.2s44.64-19.47,61.45-22.61" transform="translate(-163.79 -165.32)"/><path class="stroke-2" d="M548.55,380s33.07-28.53,48.23-30.29S616.69,346,616.69,346" transform="translate(-163.79 -165.32)"/><path class="stroke-2" d="M545.37,390.63s24.38-24.22,48.11-30.68" transform="translate(-163.79 -165.32)"/><path class="stroke-2" d="M546.64,383.62c6.76-4,37.22-28,46.05-28.36" transform="translate(-163.79 -165.32)"/><path class="stroke-2" d="M544.17,397.18c1.84-1.76,23.86-23.26,35.6-27.28s23.74-13.09,23.74-13.09" transform="translate(-163.79 -165.32)"/><path class="stroke-2" d="M542.13,403.53s43.44-21.65,54.78-29.58a115,115,0,0,0,19.78-18.05" transform="translate(-163.79 -165.32)"/><path class="stroke-2" d="M545.37,398.55c.38-.76,54.13-31.46,57.35-31.62" transform="translate(-163.79 -165.32)"/><path class="stroke-2" d="M545.06,396.32s36.42-25.43,43.81-26.88,14.64-8,14.64-8" transform="translate(-163.79 -165.32)"/><path class="stroke-2" d="M540.61,407.29s28.22-9.48,40.74-18.06S616,361.4,616,361.4" transform="translate(-163.79 -165.32)"/><path class="stroke-2" d="M541.4,421.65s11.6-11.08,34.81-20.83,26-23.27,26-23.27" transform="translate(-163.79 -165.32)"/><path class="stroke-2" d="M538.4,420.74s10.49-13.13,35.89-22.45,23.81-20,23.81-20" transform="translate(-163.79 -165.32)"/><path class="stroke-2" d="M546.64,422.61s7.81-10.19,28.12-15.92,36.66-19.31,47.21-37.25" transform="translate(-163.79 -165.32)"/><path class="stroke-2" d="M551.55,423.45s45.63-18.67,55.25-29A110.91,110.91,0,0,0,622,374" transform="translate(-163.79 -165.32)"/><path class="stroke-2" d="M530.08,448.92c2.35-1.15,21.6-5.24,35-8.6s42.69-15.1,46.53-27" transform="translate(-163.79 -165.32)"/><path class="stroke-2" d="M533.88,444.07s38.11-12.78,47.34-14.76,27.17-22.6,27.17-22.6" transform="translate(-163.79 -165.32)"/><path class="stroke-2" d="M544.17,436.35s17.82-8.62,25.26-9,37.47-20.7,42.23-27.82" transform="translate(-163.79 -165.32)"/><path class="stroke-2" d="M555.29,428.2s12.61-6,19.47-7.46,36.53-21.75,42.46-31.51" transform="translate(-163.79 -165.32)"/><path class="stroke-2" d="M556.38,425.39s17.72-10.19,24.84-12,20-11.67,20-11.67" transform="translate(-163.79 -165.32)"/><path class="stroke-2" d="M568.92,637.3s-5.3-8.08-12.52-5.21-10.88,11.67-6.14,17.7,11,4.82,12.76,2.21" transform="translate(-163.79 -165.32)"/><path class="stroke-2" d="M576.27,679.66s8-12.32-8.53-21.69" transform="translate(-163.79 -165.32)"/><path class="stroke-2" d="M553.46,716.56c.53-2.88-25.39-42.56-8.57-52s29.62,0,32.25,2.9" transform="translate(-163.79 -165.32)"/><path class="stroke-2" d="M571.46,684.34s1.49,3.69,4,4.75,9.23,6.86-2,14.24" transform="translate(-163.79 -165.32)"/><path class="stroke-2" d="M558.17,711.59s4.76-14.68-8.64-13.91" transform="translate(-163.79 -165.32)"/><path class="stroke-2" d="M583.86,697.65s3.69,2.25,3.43,4.49-6.17,4.4,0,9.32,15.55,1.76,14.1,13.89-3.75,14.24,2.74,24.13" transform="translate(-163.79 -165.32)"/><path class="stroke-2" d="M556.56,722.19s7.65.89,8.7,5.26,6.2,4,6.2,4" transform="translate(-163.79 -165.32)"/><path class="stroke-2" d="M573,720.08c.07.52,2.45,6.06-1.51,9.89" transform="translate(-163.79 -165.32)"/><path class="stroke-2" d="M555.9,739.2s8.44-5.28,0-9.76" transform="translate(-163.79 -165.32)"/><path class="stroke-2" d="M565.92,741.43s6.37,1.86,6.68-4.34,11.52-9.63,16,2.11" transform="translate(-163.79 -165.32)"/><path class="stroke-2" d="M594,751.86s-.25,3.43-2.23,3.29" transform="translate(-163.79 -165.32)"/><path class="stroke-2" d="M311.55,631.59s1.32,10.95,10.42,9.89,8.44-9.89,8.44-9.89" transform="translate(-163.79 -165.32)"/><path class="stroke-2" d="M333.18,641.65s-3.3,7.37-5.41,10.39-4.75,11.6,4.62,17.14,18.19-.66,22.94.79" transform="translate(-163.79 -165.32)"/><path class="stroke-2" d="M313.54,644.05c1.69.75,5.88,11.36,16.88,3.65" transform="translate(-163.79 -165.32)"/><path class="stroke-2" d="M321.36,652.86s-6.23,7.29-11.62.34" transform="translate(-163.79 -165.32)"/><path class="stroke-2" d="M324,661.4s-4,7.64-10,7.94" transform="translate(-163.79 -165.32)"/><path class="stroke-2" d="M326.58,666.34s2,10.09-6.06,11.28" transform="translate(-163.79 -165.32)"/><path class="stroke-2" d="M324.41,675.83s6.08,2.58,6,5.87" transform="translate(-163.79 -165.32)"/></svg>